<svg width="629" height="629" fill="none" xmlns="http://www.w3.org/2000/svg"><path d="M34.15 474.677l10.458-44.608a73.88 73.88 0 0155.066-55.066v0a73.881 73.881 0 0055.066-55.066v0a73.882 73.882 0 0155.065-55.066v0a73.878 73.878 0 0055.066-55.066v0a73.882 73.882 0 0155.066-55.065v0a73.881 73.881 0 0055.066-55.066v0a73.883 73.883 0 0155.066-55.066l44.608-10.459" stroke="#FFA800" stroke-width="2"/><path d="M58.908 499.435l10.458-44.607a73.88 73.88 0 0155.066-55.066v0c27.324-6.407 48.66-27.742 55.066-55.066v0a73.878 73.878 0 0155.066-55.066v0a73.884 73.884 0 0055.066-55.066v0a73.878 73.878 0 0155.066-55.066v0c27.324-6.406 48.659-27.742 55.066-55.066v0a73.88 73.88 0 0155.065-55.066l44.608-10.458" stroke="#FFA800" stroke-width="2"/><path d="M84.52 525.047l10.458-44.607a73.88 73.88 0 0155.066-55.066v0a73.881 73.881 0 0055.066-55.066v0a73.878 73.878 0 0155.066-55.066v0a73.881 73.881 0 0055.066-55.066v0a73.878 73.878 0 0155.066-55.066v0a73.881 73.881 0 0055.066-55.066v0a73.878 73.878 0 0155.066-55.066l44.607-10.458" stroke="#FFA800" stroke-width="2"/><path d="M110.132 550.659l10.458-44.607a73.88 73.88 0 0155.066-55.066v0a73.88 73.88 0 0055.066-55.066v0a73.88 73.88 0 0155.066-55.066v0a73.878 73.878 0 0055.066-55.066v0a73.878 73.878 0 0155.066-55.066v0a73.88 73.88 0 0055.066-55.066v0a73.88 73.88 0 0155.066-55.066l44.607-10.458" stroke="#FFA800" stroke-width="2"/><path d="M135.744 576.272l10.458-44.608a73.881 73.881 0 0155.066-55.066v0a73.878 73.878 0 0055.066-55.066v0a73.881 73.881 0 0155.066-55.066v0a73.878 73.878 0 0055.066-55.066v0a73.881 73.881 0 0155.066-55.066v0a73.878 73.878 0 0055.066-55.066v0a73.881 73.881 0 0155.066-55.066l44.608-10.458" stroke="#FFA800" stroke-width="2"/><path d="M161.356 601.883l10.458-44.607a73.878 73.878 0 0155.066-55.066v0c27.324-6.407 48.66-27.742 55.066-55.066v0a73.878 73.878 0 0155.066-55.066v0a73.881 73.881 0 0055.066-55.066v0a73.878 73.878 0 0155.066-55.066v0a73.881 73.881 0 0055.066-55.066v0a73.878 73.878 0 0155.066-55.066l44.607-10.458" stroke="#FFA800" stroke-width="2"/><path d="M186.968 627.495l10.458-44.607a73.88 73.88 0 0155.066-55.066v0a73.88 73.88 0 0055.066-55.066v0a73.88 73.88 0 0155.066-55.066v0a73.88 73.88 0 0055.066-55.066v0a73.878 73.878 0 0155.066-55.066v0a73.88 73.88 0 0055.066-55.066v0a73.88 73.88 0 0155.066-55.066l44.607-10.458" stroke="#FFA800" stroke-width="2"/></svg>