<svg width="563" height="482" fill="none" xmlns="http://www.w3.org/2000/svg"><path d="M519.626 144.735l-12.967 25.087-27.317-5.664-12.962 25.094-27.322-5.672" stroke="#ED534B" stroke-width="5.505" stroke-miterlimit="10" stroke-linecap="round"/><path d="M391.196 206.657l-12.962 25.094-27.317-5.664-12.975 25.092-27.317-5.665" stroke="#9F72FF" stroke-width="5.505" stroke-miterlimit="10" stroke-linecap="round"/><path d="M254.341 273.074l-12.962 25.094-27.31-5.67-12.974 25.092-27.318-5.664" stroke="#10E6D9" stroke-width="5.505" stroke-miterlimit="10" stroke-linecap="round"/><path d="M213.649 224.771l-12.963 25.094-27.322-5.672-12.962 25.095-27.322-5.672" stroke="#FFA800" stroke-width="5.505" stroke-miterlimit="10" stroke-linecap="round"/><path d="M464.097 44.434l-12.962 25.094-27.322-5.672-12.963 25.095-27.322-5.672M527.122 199.017l-12.963 25.095-27.322-5.672-12.962 25.094-27.322-5.672" stroke="#FF57C6" stroke-width="5.505" stroke-miterlimit="10" stroke-linecap="round"/><path d="M328.488 109.825l-12.967 25.088-27.317-5.665-12.962 25.094-27.322-5.672M406.2 257.677l-12.967 25.087-27.317-5.665-12.962 25.094-27.322-5.672" stroke="#FFA800" stroke-width="5.505" stroke-miterlimit="10" stroke-linecap="round"/><path d="M200.852 171.372l-12.967 25.087-27.31-5.67-12.97 25.099-27.322-5.672" stroke="#9F72FF" stroke-width="5.505" stroke-miterlimit="10" stroke-linecap="round"/><path d="M342.875 162.461l-12.963 25.094-27.314-5.677-12.97 25.099-27.322-5.672" stroke="#FF57C6" stroke-width="5.505" stroke-miterlimit="10" stroke-linecap="round"/><path d="M464.125 103.99l-12.963 25.094-27.317-5.665-12.967 25.087-27.317-5.664" stroke="#10E6D9" stroke-width="5.505" stroke-miterlimit="10" stroke-linecap="round"/><path d="M132.004 328.713L119.037 353.8l-27.317-5.665-12.963 25.095-27.322-5.672" stroke="#ED534B" stroke-width="5.505" stroke-miterlimit="10" stroke-linecap="round"/></svg>