<svg width="1141" height="1481" fill="none" xmlns="http://www.w3.org/2000/svg"><path d="M644 67.5c118-6.666 389-144 470.5 0C1213.83 243 1000.62 351.384 609 412 321.5 456.5-42.501 508.687 7 721.5c47.616 204.708 285.5 94.5 637 20 513-108.73 539.5 176 346.5 287.5s-790.5 12.5-917 121.5c-134.822 116.17 31 288.5 201 307s495.5 36.4 593.5 0" stroke="#D9D9D9" stroke-width="3"/><path d="M691 35c118-6.667 307-88.635 396.5 69.5 99.33 175.5-79.38 271.384-471 332C329 481-.501 565.687 49 778.5c47.616 204.708 107-7 458.5-81.5 513-108.73 683.5 238 490.5 349.5S217.5 1071 91 1180c-134.822 116.17-79 280.5 146.5 295 274.5 10 424.5-41.5 565-32" stroke="#FF57C6" stroke-opacity=".5" stroke-width="3"/></svg>