<svg width="592" height="501" fill="none" xmlns="http://www.w3.org/2000/svg"><path d="M72.128 163.735l12.967 25.087 27.317-5.664 12.962 25.094 27.322-5.672" stroke="#ED534B" stroke-width="5.505" stroke-miterlimit="10" stroke-linecap="round"/><path d="M200.557 225.657l12.963 25.094 27.317-5.665 12.974 25.093 27.318-5.665" stroke="#9F72FF" stroke-width="5.505" stroke-miterlimit="10" stroke-linecap="round"/><path d="M59.622 109.043l-2.446 1.263.96 1.857 2.045-.425-.56-2.695zm27.881-2.977a2.752 2.752 0 10-1.119-5.39l1.12 5.39zm-27.502-2.288a2.753 2.753 0 00-4.892 2.527l4.892-2.527zm.18 7.96l27.322-5.672-1.119-5.39-27.322 5.672 1.12 5.39zm-5.072-5.433l2.067 4.001 4.892-2.526L60 103.778l-4.892 2.527z" fill="#FFA800"/><path d="M337.412 292.073l12.963 25.095 27.31-5.67 12.974 25.092 27.317-5.664" stroke="#10E6D9" stroke-width="5.505" stroke-miterlimit="10" stroke-linecap="round"/><path d="M378.105 243.771l12.963 25.094 27.322-5.672 12.962 25.094 27.322-5.671" stroke="#FFA800" stroke-width="5.505" stroke-miterlimit="10" stroke-linecap="round"/><path d="M127.657 63.434l12.962 25.094 27.322-5.672 12.962 25.095 27.322-5.672M64.632 218.017l12.962 25.095 27.322-5.672 12.963 25.094 27.322-5.672" stroke="#FF57C6" stroke-width="5.505" stroke-miterlimit="10" stroke-linecap="round"/><path d="M263.265 128.826l12.967 25.087 27.318-5.665 12.962 25.094 27.322-5.672M185.553 276.677l12.967 25.087 27.318-5.665 12.962 25.094 27.322-5.672" stroke="#FFA800" stroke-width="5.505" stroke-miterlimit="10" stroke-linecap="round"/><path d="M390.902 190.372l12.967 25.087 27.31-5.67 12.97 25.099 27.321-5.672" stroke="#9F72FF" stroke-width="5.505" stroke-miterlimit="10" stroke-linecap="round"/><path d="M248.879 181.461l12.962 25.094 27.315-5.677 12.97 25.099 27.322-5.672" stroke="#FF57C6" stroke-width="5.505" stroke-miterlimit="10" stroke-linecap="round"/><path d="M127.629 122.989l12.963 25.095 27.317-5.665 12.967 25.087 27.317-5.665" stroke="#10E6D9" stroke-width="5.505" stroke-miterlimit="10" stroke-linecap="round"/><path d="M459.75 347.713l12.967 25.087 27.317-5.665 12.962 25.095 27.322-5.672" stroke="#ED534B" stroke-width="5.505" stroke-miterlimit="10" stroke-linecap="round"/></svg>