<svg width="726" height="168" fill="none" xmlns="http://www.w3.org/2000/svg"><path d="M133.257 2l31.179 26.276L195.635 2l31.179 26.276L258.013 2l31.189 26.276L320.391 2l31.189 26.276L382.769 2l31.189 26.276L445.147 2l31.189 26.276L507.525 2l31.188 26.276L569.912 2l31.189 26.276L632.3 2l31.199 26.276M70 34.839l31.189 26.266 31.189-26.266 31.189 26.266 31.189-26.266 31.189 26.266 31.189-26.266 31.189 26.266 31.189-26.266 31.189 26.266 31.189-26.266 31.189 26.266 31.189-26.266 31.199 26.266 31.189-26.266 31.189 26.266 31.199-26.266 31.198 26.266M70.544 67.68l31.189 26.265 31.189-26.266 31.189 26.266L195.3 67.679l31.189 26.266 31.189-26.266 31.189 26.266 31.198-26.266 31.189 26.266 31.189-26.266 31.189 26.266 31.189-26.266 31.189 26.266 31.199-26.266 31.189 26.266 31.199-26.266 31.199 26.266M133.257 100.508l31.179 26.275 31.199-26.275 31.179 26.275 31.199-26.275 31.189 26.275 31.189-26.275 31.189 26.275 31.189-26.275 31.189 26.275 31.189-26.275 31.189 26.275 31.189-26.275 31.188 26.275 31.199-26.275 31.189 26.275 31.199-26.275 31.199 26.275M193.758 133.348l31.189 26.266 31.189-26.266 31.189 26.266 31.189-26.266 31.189 26.266 31.189-26.266 31.189 26.266 31.189-26.266 31.198 26.266 31.18-26.266 31.189 26.266 31.198-26.266 31.189 26.266 31.189-26.266 31.199 26.266 31.199-26.266L724 159.614" stroke="#D8D8D8" stroke-width="3" stroke-miterlimit="10" stroke-linecap="round"/><path d="M91.776 28.22l14.639-19.286.644 24.325.049 1.852 1.522-1.057 19.816-13.767-6.818 23.35-.515 1.765 1.762-.527 23.061-6.898-13.62 20.085-1.025 1.511 1.826.05 24.053.653-19.091 14.846-1.435 1.116 1.711.614L161.042 85l-22.687 8.148-1.711.614 1.435 1.116 19.091 14.846-24.053.653-1.826.05 1.025 1.511 13.62 20.085-23.061-6.898-1.762-.527.515 1.765 6.818 23.35-19.816-13.767-1.522-1.057-.049 1.852-.644 24.325-14.64-19.286-1.124-1.482-.615 1.756L82 164.977l-8.036-22.923-.615-1.756-1.125 1.482-14.64 19.286-.643-24.325-.05-1.852-1.52 1.057-19.817 13.767 6.818-23.35.515-1.765-1.761.527-23.062 6.898 13.62-20.085 1.025-1.511-1.826-.05-24.053-.653 19.09-14.846 1.436-1.116-1.711-.614L2.958 85l22.687-8.148 1.71-.614-1.434-1.116L6.83 60.276l24.052-.653 1.826-.05-1.025-1.511-13.62-20.085 23.062 6.898 1.761.527-.515-1.765-6.818-23.35L55.37 34.054l1.522 1.057.049-1.852.644-24.325 14.64 19.286 1.124 1.482.615-1.756L82 5.023l8.036 22.923.615 1.756 1.125-1.482z" fill="#fff" stroke="#FFA800" stroke-width="2"/></svg>