<svg width="537" height="418" fill="none" xmlns="http://www.w3.org/2000/svg"><path d="M219.607 118.513c-59.98 32.277-108.714 71.691-139.035 109.264-15.163 18.789-25.672 37.056-30.718 53.686-5.042 16.622-4.597 31.491 1.952 43.662 6.55 12.172 18.714 20.734 35.365 25.682 16.658 4.951 37.693 6.244 61.727 3.939 48.061-4.607 107.802-23.567 167.782-55.844 59.979-32.276 108.713-71.69 139.035-109.263 15.163-18.789 25.672-37.057 30.717-53.687 5.043-16.622 4.598-31.49-1.952-43.662-6.55-12.171-18.714-20.734-35.364-25.682-16.659-4.95-37.693-6.243-61.728-3.939-48.061 4.608-107.802 23.567-167.781 55.844z" stroke="#FFA800" stroke-width="3.094"/><path d="M230.253 113.546c-63.28 25.197-116.206 58.772-150.63 92.626-17.215 16.929-29.747 33.873-36.663 49.816-6.913 15.935-8.173 30.757-3.06 43.599 5.113 12.841 16.217 22.74 32.19 29.562 15.983 6.825 36.731 10.518 60.871 10.981 48.273.926 109.792-11.069 173.073-36.266 63.281-25.197 116.207-58.772 150.631-92.626 17.215-16.929 29.746-33.873 36.662-49.816 6.913-15.935 8.174-30.757 3.06-43.599-5.113-12.841-16.216-22.74-32.191-29.562-15.982-6.825-36.73-10.518-60.87-10.98-48.273-.927-109.792 11.068-173.073 36.265z" stroke="#FFA800" stroke-width="3.094"/><path d="M239.351 110.409c-65.367 19.147-121.21 47.606-158.66 78.08-18.727 15.239-32.793 30.932-41.175 46.156-8.378 15.216-11.024 29.854-7.139 43.119 3.886 13.264 14.012 24.161 29.275 32.453 15.271 8.295 35.582 13.918 59.571 16.645 47.973 5.452 110.346-.717 175.713-19.864 65.366-19.147 121.209-47.606 158.659-78.08 18.727-15.239 32.794-30.932 41.175-46.156 8.378-15.216 11.024-29.854 7.139-43.119-3.886-13.264-14.011-24.162-29.275-32.453-15.271-8.295-35.581-13.918-59.571-16.645-47.973-5.452-110.346.716-175.712 19.864z" stroke="#FFA800" stroke-width="3.094"/></svg>