<svg width="121" height="120" fill="none" xmlns="http://www.w3.org/2000/svg"><g clip-path="url(#clip0)"><path d="M36.292 25.991c-7.527 20.476-7.082 45.344 14.57 56.768 12.212 6.444 29.073 13.188 43.023 8.935 9.463-2.885 12.607-11.318 7.56-19.93-7.916-13.51-25.675-18.526-39.93-21.237-11.425-2.173-35.5-7.087-44.878 3.23C6.569 64.832 58.36 76.029 67.769 68.189 81.966 56.36 31.184 31.18 25.02 28.603c-1.174-.49-17.904-5.885-9.484.206 9.826 7.109 21.654 11.3 32.301 16.976 5.724 3.05 15.835 6.913 12.783 15.05-3.107 8.288-10.83 13.873-16.906 19.863-7.75 7.638-15.09 16.507-18.694 26.94-2.83 8.195-2.006 2.876-4.948-3.848-2.798-6.395-7.14-13.619-6.735-20.893.49-8.818 9.847-12.305 16.906-14.776 8.912-3.12 20.257-5.18 27.628-11.478 5.41-4.62 2.567-11.495-3.436-13.607-4.81-1.693-16.33-3.805-20.48.412-5.445 5.53.548 16.218 4.88 20.137 8.97 8.116 22.587 14.496 34.156 17.662 7.306 2 16.462 1.072 11.959-8.522-3.102-6.607-22.389-19.155-6.048-19.518 1.774-.04 29.478-1.911 23.641-6.873-3.506-2.98-16.404 6.57-13.47 3.024 3.49-4.216 6.305-8.974 9.622-13.332 1.143-1.503 8.865-9.217 2.611-8.523-10.264 1.14-21.184 6.446-30.652 10.172-16.068 6.323-33.59 13.052-47.764 23.092-6.266 4.438-4.486 7.83 2.543 8.247 12.3.73 25.153-4.633 36.493-8.59 14.934-5.212 29.896-10.757 44.329-17.25 8.343-3.755-2.561.892-4.124 1.717-6.652 3.513-82.035 50.037-80.41 51.957 3.43 4.053 25.154.622 29.278.344 15.624-1.052 31.797-3.16 46.596-8.522 8.149-2.953 2.284-4.01-2.749-4.261-13.315-.666-28.237.717-40.548 6.048-6.468 2.8-11.498 8.877-1.65 10.446 8.316 1.325 17.326-1.142 25.154-3.711 5.256-1.725 8.942-2.911 1.374-3.161-18.181-.602-32.163-8.791-46.321-19.931C15.886 60.747.536 42.632 6.466 19.394c5.261-20.622 27.865-5.021 38.898-.138 6.124 2.711 12.518 3.5 19.106 4.193 2.705.284-5.566-.069-8.11.893-8.695 3.287-29.49 25.536-21.511 35.944 7.46 9.73 34.588-3.368 43.435-5.017 17.5-3.263-9.075 23.342-11.89 25.84-9.265 8.225-18.715 16.26-28.452 23.918-5.455 4.29-2.858 3.848 2.68 3.848 25.4 0 50.68-2.474 76.08-2.474" stroke="#F8DDEB" stroke-width="3" stroke-linecap="round"/><path d="M48.551 62.435l-4.95 4.95 27.931 27.93a3.5 3.5 0 004.95 0v0a3.5 3.5 0 000-4.95l-27.93-27.93z" stroke="#000" stroke-width="3" stroke-linecap="round"/><path d="M48.551 62.435l-4.95 4.95-10.96-10.96a3.5 3.5 0 010-4.95v0a3.5 3.5 0 014.95 0l10.96 10.96zM76.221 95.576c7.288 8.74 26.524 21.56 45.162 2.922" stroke="#000" stroke-width="3" stroke-linecap="round"/><path d="M62.895 33.5h16.162v-3H62.895v3zm-7.37 7.208h.162v-3h-.162v3zm-2.266 2.678v-.412h-3v.412h3zm18.84 2.678H55.938v3H72.1v-3zm7.37-7.208h-.161v3h.161v-3zm2.266-2.678v.413h3v-.413h-3zm-2.266 5.678a5.266 5.266 0 005.266-5.266h-3a2.266 2.266 0 01-2.266 2.266v3zm-2.265 2.104c0-1.162.942-2.104 2.104-2.104v-3a5.104 5.104 0 00-5.104 5.104h3zM72.1 49.065a5.104 5.104 0 005.104-5.105h-3a2.104 2.104 0 01-2.104 2.105v3zm-21.84-5.679a5.678 5.678 0 005.678 5.678v-3a2.678 2.678 0 01-2.679-2.678h-3zm5.265-5.678a5.266 5.266 0 00-5.266 5.266h3a2.266 2.266 0 012.266-2.266v-3zm2.266-2.104a2.104 2.104 0 01-2.104 2.104v3a5.104 5.104 0 005.104-5.104h-3zM79.057 33.5c1.48 0 2.678 1.199 2.678 2.678h3a5.678 5.678 0 00-5.678-5.678v3zm-16.162-3a5.104 5.104 0 00-5.104 5.104h3c0-1.162.942-2.104 2.104-2.104v-3zM59.29 1.5h-10v3h10v-3zm7 6h-1v3h1v-3zm-6 11h6v-3h-6v3zm-11-6h5v-3h-5v3zm-29.42 6h15.766v-3H19.87v3zm-10.203 8h2.203v-3H9.667v3zm16.178 6H9.667v3h16.178v-3zm9.791-8.644h-1.148v3h1.148v-3zm0 3a5.678 5.678 0 005.679-5.678h-3c0 1.48-1.2 2.678-2.678 2.678v3zm-3.97 2.822a2.822 2.822 0 012.822-2.822v-3a5.822 5.822 0 00-5.821 5.822h3zM25.846 35.5a5.822 5.822 0 005.822-5.822h-3a2.822 2.822 0 01-2.822 2.822v3zm-22.178-6a6 6 0 006 6v-3a3 3 0 01-3-3h-3zm6-6a6 6 0 00-6 6h3a3 3 0 013-3v-3zM14.37 21a2.5 2.5 0 01-2.5 2.5v3a5.5 5.5 0 005.5-5.5h-3zm21.267-2.5c1.479 0 2.678 1.2 2.678 2.678h3a5.678 5.678 0 00-5.678-5.678v3zm-15.767-3a5.5 5.5 0 00-5.5 5.5h3a2.5 2.5 0 012.5-2.5v-3zm29.42-6a2.5 2.5 0 01-2.5-2.5h-3a5.5 5.5 0 005.5 5.5v-3zm9.5 4.5a4.5 4.5 0 00-4.5-4.5v3a1.5 1.5 0 011.5 1.5h3zm1.5 1.5a1.5 1.5 0 01-1.5-1.5h-3a4.5 4.5 0 004.5 4.5v-3zm8.5-2.5a2.5 2.5 0 01-2.5 2.5v3a5.5 5.5 0 005.5-5.5h-3zm-2.5-2.5a2.5 2.5 0 012.5 2.5h3a5.5 5.5 0 00-5.5-5.5v3zM60.79 6a4.5 4.5 0 004.5 4.5v-3a1.5 1.5 0 01-1.5-1.5h-3zm-11.5-4.5a5.5 5.5 0 00-5.5 5.5h3a2.5 2.5 0 012.5-2.5v-3zm10 3a1.5 1.5 0 011.5 1.5h3a4.5 4.5 0 00-4.5-4.5v3zM22.29 78.5h10v-3h-10v3zm5 5h-5v3h5v-3zm6 9h6v-3h-6v3zm6-11h-1v3h1v-3zm-19.123 14h-5v3h5v-3zm-5 11h5v-3h-5v3zm0-3a2.5 2.5 0 01-2.5-2.5h-3a5.5 5.5 0 005.5 5.5v-3zm7.5-2.5a2.5 2.5 0 01-2.5 2.5v3a5.5 5.5 0 005.5-5.5h-3zm-7.5-5.5a5.5 5.5 0 00-5.5 5.5h3a2.5 2.5 0 012.5-2.5v-3zm5 3a2.5 2.5 0 012.5 2.5h3a5.5 5.5 0 00-5.5-5.5v3zm18.124-17a1.5 1.5 0 01-1.5-1.5h-3a4.5 4.5 0 004.5 4.5v-3zm6.5 5.5a5.5 5.5 0 00-5.5-5.5v3a2.5 2.5 0 012.5 2.5h3zm-5.5 5.5a5.5 5.5 0 005.5-5.5h-3a2.5 2.5 0 01-2.5 2.5v3zM28.79 88a4.5 4.5 0 004.5 4.5v-3a1.5 1.5 0 01-1.5-1.5h-3zm-1.5-1.5a1.5 1.5 0 011.5 1.5h3a4.5 4.5 0 00-4.5-4.5v3zM16.79 81a5.5 5.5 0 005.5 5.5v-3a2.5 2.5 0 01-2.5-2.5h-3zm15.5-2.5a1.5 1.5 0 011.5 1.5h3a4.5 4.5 0 00-4.5-4.5v3zm-10-3a5.5 5.5 0 00-5.5 5.5h3a2.5 2.5 0 012.5-2.5v-3z" fill="#000"/></g><defs><clipPath id="clip0"><path fill="#fff" transform="translate(.667)" d="M0 0h120v120H0z"/></clipPath></defs></svg>