<svg width="121" height="120" fill="none" xmlns="http://www.w3.org/2000/svg"><path d="M39.376 28.897c-1.272 9.03-4.708 15.438-10.067 22.782-2.303 3.154-10.776 12.295-8.65 17.076.927 2.088 16.77-12.603 17.971-13.534 5.615-4.355 11.76-8.141 17.897-11.708 4.759-2.765 3.548-2.987-.746-1.044-14.619 6.616-27.383 20.134-38.404 31.357-1.649 1.68-9.633 8.308-9.097 11.447.375 2.201 7.152 1.284 8.24 1.156 8.304-.977 16.38-4.755 24.049-7.867 8.573-3.48 17.16-7.286 24.534-12.976 12.965-10.005-5.145-15.965-13.759-17.114-7.75-1.033-26.375-1.416-23.974 11.447 2.802 15.011 26.207 16.804 37.509 21.029 3.174 1.186.04 2.485-1.715 2.908-6.178 1.491-13.17.798-19.463.746-1.353-.011-13.2.671-13.2-2.2 0-4.295 11.35-9.185 13.87-10.552 9.601-5.203 19.486-10.019 28.338-16.48 4.775-3.485 12.161-9.072 10.813-15.995-2.323-11.922-26.667-13.722-33.632-5.854-12.476 14.093 31.064 33.33 38.628 38.553 4.468 3.085 11.573 8.367 10.067 14.84-1.732 7.442-10.684 9.987-17.151 10.85-7.382.984-15.097.606-22.334-1.156-2.78-.677-10.196-3.614-3.095-4.996 10.978-2.138 22.45-1.717 33.52-3.468 7.837-1.24 20.817-2.861 25.316-10.701 8.781-15.298-29.123-27.539-37.882-29.791-4.911-1.263-18.28-3.852-15.212.186 1.145 1.508 4.633 3.093 5.966 3.654 6.285 2.647 12.975 4.428 19.574 6.078 5.164 1.29 10.375 2.352 15.586 3.43 3.263.675-6.613-.875-9.881-1.529-10.27-2.054-20.359-4.962-30.276-8.314-2.696-.911-14.187-4.344-4.996-5.854 8.676-1.426 17.587-.64 26.324-1.342 6.27-.505 2.458-.953-1.194-.97-12.427-.057-24.857 0-37.285 0-4.848 0-11.942-.028-16.89.075-2.956.061-10.827-.636-13.535 1.864-3.332 3.076 10.603 8.687 11.186 8.949 13.723 6.151 28.326 10.666 41.35 18.307C84.86 82.268 59.76 87.178 51.716 88.629c-3.526.635-12.818 2.46-9.806 4.4.932.6 4.591 1.174 5.145 1.267 5.99 1.007 12.039 1.77 18.084 2.349 12.295 1.177 25.412 2.862 37.77 1.752 6.402-.575-3.808-2.704-4.4-2.833-7.934-1.74-15.9-3.32-23.862-4.922-4.546-.914-8.076-1.612-12.565-2.61-1.19-.264-8.047-1.08-9.136-2.76-.25-.385 18.379-4.703 18.494-4.734 12.289-3.326 25.78-7.914 35.719-16.22 5.295-4.423 8.997-10.718 3.282-16.368-8.011-7.917-20.248-12.028-30.649-15.548a194.699 194.699 0 00-13.274-3.952c-2.282-.59-8.684-.417-6.823-1.864 2.427-1.888 11.372.153 13.908.298" stroke="#EAEAEA" stroke-width="3" stroke-linecap="round"/><path d="M28 46h65v39c0 6.075-4.925 11-11 11H39c-6.075 0-11-4.925-11-11V46z" stroke="#000" stroke-width="3"/><rect width="81" height="11" rx="5.5" transform="matrix(1 0 0 -1 20 46)" stroke="#000" stroke-width="3"/><rect x="56" y="46" width="9" height="50" rx="4.5" stroke="#000" stroke-width="3"/><rect x="93" y="57" width="8" height="65" rx="4" transform="rotate(90 93 57)" stroke="#000" stroke-width="3"/><path d="M53.868 17.262c2.906 2.906 5.699 16.305 5.699 16.305s-13.4-2.793-16.305-5.699c-2.906-2.906-2.888-7.636.041-10.565 2.93-2.929 7.66-2.947 10.565-.041zM69.002 17.262c-2.906 2.906-5.699 16.305-5.699 16.305s13.4-2.793 16.305-5.699c2.906-2.906 2.888-7.636-.041-10.565-2.93-2.929-7.66-2.947-10.565-.041z" stroke="#000" stroke-width="3"/></svg>