<svg width="121" height="120" fill="none" xmlns="http://www.w3.org/2000/svg"><g clip-path="url(#clip0)" stroke-width="3" stroke-linecap="round"><path d="M38.819 18.518C34.7 33.905 23.888 44.528 16.959 58.51c-.773 1.56-2.804 6.85.806 6.85 7.953 0 16.698-12.384 21.054-17.527 6.771-7.996 13.52-16.122 19.845-24.48.178-.235 3.767-6.616 2.72-3.475-2.113 6.338-3.329 12.778-5.944 18.99-4.593 10.907-10.48 21.366-16.52 31.53-2.942 4.948-1.523-.382-.857-2.67 1.94-6.67 5.402-12.691 9.318-18.384 3.226-4.69 6.795-11.115 11.132-14.91 1.187-1.038-.366 3.172-.957 4.635-2.631 6.5-5.712 12.83-8.966 19.039-6.06 11.563-12.635 23.08-20.752 33.343-5.472 6.92-3.652 3.622-.402-1.914 6.531-11.128 14.442-20.918 23.37-30.22 5.743-5.984 11.712-11.801 18.032-17.176 1.848-1.572 7.471-7.278 10.577-7.505.985-.072-.446 1.947-.906 2.82-2.508 4.751-4.946 9.528-7.404 14.305-7.148 13.887-14.94 27.43-22.112 41.302-1.442 2.789-5.504 11.464-.403 3.878 8.662-12.882 18.842-24.38 30.322-34.854 5.647-5.153 14.628-15.006 22.564-16.874.802-.188-.061 1.724-.503 2.418-3.972 6.228-8.824 12.004-13.398 17.78-9.642 12.174-19.548 24.198-28.61 36.819-1.48 2.061-5.956 6.619-3.424 6.8 1.684.12 6.076-5.71 6.648-6.296 9.655-9.898 20.112-19.021 31.027-27.501 1.568-1.219 16.237-14.026 9.57-4.231-6.377 9.368-21.389 39.534-13.902 31.026 3.417-3.883 6.465-7.946 10.477-11.282.365-.304 6.615-5.104 6.195-3.072-1.114 5.385-3.714 10.51-5.087 15.865-.086.336-1.156 3.904-.202 0 .989-4.042 2.603-7.867 4.231-11.685 4.083-9.574 8.773-18.935 12.492-28.66 1.832-4.792 5.223-12.627-.303-16.369-6.128-4.15-15.234-3.666-22.212-3.777-10.299-.165-20.642-.24-30.926.402-3.003.188-12.025.454-9.016.454 7.06 0 14.103-.121 21.155-.504 9.301-.505 18.732-.65 28.005-1.51.459-.044.947-.047 1.359-.253.79-.395-1.736-.373-2.619-.403-5.445-.181-10.923-.068-16.37-.05-16.764.056-66.942-.113-50.266 1.612 11.803 1.22 23.407 1.89 35.156 3.979 1.921.341 36.735 5.715 32.891 11.987-3.368 5.494-17.844 5.296-22.918 5.591-14.486.845-29.284.774-43.77-.1-6.443-.39-9.8-1.31-1.36-1.31 18.215 0 36.71.214 54.8 2.518 7.89 1.005 5.107 2.767-.956 3.778-13.434 2.239-27.377 2.107-40.95 2.77-.81.04-23.571.662-23.571 1.36 0 .894 32.931.453 34.552.453h21.658c2.888 0 5.776-.01 8.663 0 2.117.008 7.436-1.613 6.347.202-1.151 1.918-4.424.673-6.649.906-8.03.842-16.064 1.549-24.076 2.57-14.866 1.893-29.942 3.562-44.626 6.597-9.396 1.943 12.344 2.172 13.902 2.217 15.866.451 31.804-.362 47.648.705 7.973.536 2.368 3.587-1.712 5.44-9.202 4.176-19.718 6.005-29.466 8.461-1.307.33-17.521 4.392-14.355 4.584 8.631.523 34.586.05 25.94.05-6.795 0-15.465.062-21.407 3.627" stroke="#E4D8FF"/><circle cx="60.833" cy="60.5" r="12.5" stroke="#000" stroke-linejoin="round"/><path d="M71.833 54l15-11" stroke="#000" stroke-linejoin="round"/><circle cx="92.833" cy="40" r="6" stroke="#000" stroke-linejoin="round"/><circle cx="100.833" cy="87.5" r="8.5" stroke="#000" stroke-linejoin="round"/><circle cx="54.333" cy="19" r="6" stroke="#000" stroke-linejoin="round"/><path d="M55.833 25l3.5 23" stroke="#000" stroke-linejoin="round"/><circle cx="27.833" cy="95.5" r="7.5" stroke="#000" stroke-linejoin="round"/><path d="M33.333 90l19-20M71.833 67l22 15.5" stroke="#000" stroke-linejoin="round"/></g><defs><clipPath id="clip0"><path fill="#fff" transform="translate(.333)" d="M0 0h120v120H0z"/></clipPath></defs></svg>