<svg width="121" height="120" fill="none" xmlns="http://www.w3.org/2000/svg"><path d="M49.482 25.808c-5.76 9.497-13.733 17.234-21.129 25.461-.905 1.007-18.359 19.91-13.693 21.557 8.433 2.976 20.137-12.046 24.82-16.85 6.234-6.396 12.27-12.989 18.24-19.63 2.304-2.564 8.344-10.833 6.9-7.703-3.924 8.502-11.337 16.167-16.315 24.124C46.89 55.03 31.09 78.77 36.11 79.512c4.454.657 9.15-1.425 13.052-3.21 8.966-4.098 17.575-9.045 25.676-14.656 1.695-1.174 21.856-16.17 13.051-7.275-10.66 10.771-21.36 21.616-32.255 32.148-3.297 3.188-14.918 11.27-4.225 10.43 14.233-1.115 27.841-6.309 41.936-8.397.117-.017 12.334-2.8 8.077 1.07-3.55 3.228-7.655 5.67-10.751 9.414-.398.481-5.45 7.201-3.745 8.131 1.605.875 7.42-4.674 8.291-5.403 2.058-1.721 6.998-4.965 7.757-7.81.609-2.286-4.694-.748-7.061-.748-22.774 0-46.612.154-68.735-5.938-6.778-1.866-14.263-4.802-15.566-12.624-1.372-8.23 4.195-15.51 10.056-20.54C37.961 40.119 58.57 35.303 77.832 27.198c4.45-1.872 6.828-3.278.321-3.316-8.413-.05-16.95.503-25.248 1.925-2.792.48-26.98 5.825-15.512 7.703 11.751 1.925 36.412-.442 43.328 11.768C86.64 55.73 67.166 65.812 61.196 69.991c-5.804 4.063-21.813 11.853-7.06 13.96 6.064.867 12.252.606 18.347 1.178 2.961.277 11.02.164 13.48 2.46 2.356 2.199-6.819 5.405-7.008 5.456-8.807 2.375-18.789 2.93-27.868 2.782-7.41-.122-18.106-2.978-12.838-12.57 5.216-9.498 14.27-17.716 21.931-25.141 8.743-8.474 18.235-15.88 27.922-23.215 2.785-2.109 11.29-7.976 8.024-6.74-5.897 2.231-11.874 4.262-17.759 6.526-4.311 1.658-29.29 12.153-14.442 17.652 8.75 3.24 30.943 2.207 34.234 13.372 2.981 10.117-8.347 22.037-14.443 28.457-4.084 4.303 3.317-.59 3.317-1.925 0-2.58-7.205-1.926-8.666-1.926" stroke="#FFD0CD" stroke-width="3" stroke-linecap="round"/><g clip-path="url(#clip0)"><path d="M20.167 26.546c0-5.523 4.477-10 10-10h22.76c5.523 0 10 4.477 10 10v23.38a4.9 4.9 0 01-1.435 3.465L44.318 70.565A4.9 4.9 0 0140.853 72H30.167c-5.523 0-10-4.477-10-10V26.546z" stroke="#000" stroke-width="3"/><path d="M62.927 50.62h-14.52a6.86 6.86 0 00-6.86 6.86V72" stroke="#000" stroke-width="3"/><path d="M29.055 25.87h25.121M29.055 32.185h25.121M29.055 38.226h14.55M53.67 102.567a34.144 34.144 0 01-3.208-7.396m13.126 3.223c-3.894-5.13-6.154-11.116-6.785-17.258m15.289 13.615c-6.73-7.532-7.358-18.624-1.93-26.975" stroke="#000" stroke-width="3" stroke-linecap="round"/><path d="M46.373 103.996l16.819-39.514a2.372 2.372 0 013.86-.748l21.14 21.14a2.372 2.372 0 01-.75 3.859L47.93 105.552c-.982.418-1.974-.574-1.556-1.556zM87.878 73.37c6.437-6.436 15.412-7.897 20.047-3.263M78.554 64.047C84.99 57.61 86.452 48.635 81.817 44M83.915 69.408v-2.196a2 2 0 012-2h.196a2 2 0 002-2v-.195a2 2 0 012-2h.196a2 2 0 002-2v-.196a2 2 0 012-2h.196a2 2 0 002-2v-.196a2 2 0 012-2h2.195" stroke="#000" stroke-width="3" stroke-linecap="round"/><circle cx="90.675" cy="51.459" r=".989" transform="rotate(45 90.675 51.46)" fill="#000"/><circle r=".989" transform="scale(-1 1) rotate(-45 23.373 151.101)" fill="#000"/><circle cx="75.29" cy="53.79" r=".989" transform="rotate(45 75.29 53.79)" fill="#000"/><circle r=".989" transform="scale(-1 1) rotate(-45 43.109 155.98)" fill="#000"/></g><defs><clipPath id="clip0"><path fill="#fff" transform="translate(12.167 11)" d="M0 0h98v98H0z"/></clipPath></defs></svg>