<svg width="120" height="120" fill="none" xmlns="http://www.w3.org/2000/svg"><path d="M44.74 22c-5.861 10.615-12.644 20.177-20.005 29.809-1.162 1.521-14.867 16.72-12.563 18.866 4.183 3.895 15.91-7.011 18.385-9.411 7.367-7.144 15.709-16.307 17.947-26.658 1.372-6.35-7.895 4.121-8.23 4.553-9.653 12.458-19.308 27.337-25.563 41.846-2.566 5.952-1.39 9.165 5.384 5.778 7.814-3.907 14.72-10.277 21.317-15.89 6.548-5.57 13.433-11.275 18.91-17.946 3.517-4.284 6.47-9.137 9.017-14.05.087-.169 4.365-8.137.088-5.779-10.345 5.703-17.87 20.249-24.294 29.503-1.022 1.471-18.905 25.585-17.027 26.613C31.329 91 40.27 84.964 42.55 83.72a272.92 272.92 0 0028.978-18.297c7.863-5.683 15.42-11.862 22.236-18.778 4.555-4.622 10.717-10.732 12.037-17.465.611-3.113-2.11-3.358-4.508-2.802-6.632 1.538-12.547 5.98-17.246 10.725-6.746 6.81-12.551 14.762-18.56 22.192-11.05 13.665-22.35 27.187-32.917 41.234-1.908 2.536-9.81 10.812-9.367 14.882.269 2.47 8.012-.993 8.142-1.05 19.148-8.459 37.57-21.582 53.971-34.405 7.032-5.5 13.861-11.37 19.829-18.035 1.853-2.069 9.557-9.822 7.441-13.657-3.692-6.691-23.59 11.379-25.344 13.176-3.381 3.463-30.598 34.169-23.068 38.651 8.145 4.848 25.206-4.704 32.216-8.142 4.904-2.404 10.553-4.945 14.796-8.492 1.537-1.285 1.534-2.608-.788-2.013-10.028 2.568-18.538 12.06-25.782 18.866-1.234 1.159-5.273 4.065-3.677 3.502 2.896-1.023 5.683-2.325 8.535-3.458 1.496-.595 14.871-6.353 15.146-3.152.226 2.639-1.051 5.209-3.502 6.259-4.119 1.766-9.633-.539-13.132-2.582-22.56-13.171-41.687-33.193-59.88-51.564-6.564-6.628-12.997-13.381-19.698-19.873-1.751-1.696-7.054-6.575-4.902-5.427 6.036 3.22 11.689 8.143 17.202 12.125 10.62 7.67 20.737 15.896 30.64 24.468 7.402 6.406 14.634 12.973 21.58 19.873 4.396 4.366 8.995 11.355 14.183 14.882.304.208-.388-2.9-.613-3.239" stroke="#FFE5B4" stroke-width="3" stroke-linecap="round"/><circle cx="59.5" cy="59.5" r="38.5" stroke="#000" stroke-width="3"/><circle cx="43.355" cy="45.839" r="4.968" stroke="#000" stroke-width="3"/><circle cx="75.645" cy="45.839" r="4.968" stroke="#000" stroke-width="3"/><path d="M72.333 71.505c0 6.86-5.56 12.42-12.419 12.42-6.859 0-12.42-5.56-12.42-12.42" stroke="#000" stroke-width="3"/></svg>