<svg width="121" height="120" fill="none" xmlns="http://www.w3.org/2000/svg"><path d="M35.626 25.991c-7.528 20.476-7.082 45.344 14.57 56.768 12.21 6.444 29.072 13.188 43.022 8.935 9.463-2.885 12.607-11.318 7.56-19.93-7.916-13.51-25.675-18.526-39.93-21.237-11.425-2.173-35.499-7.087-44.878 3.23C5.902 64.832 57.694 76.029 67.102 68.189 81.3 56.36 30.517 31.18 24.354 28.603c-1.174-.49-17.904-5.885-9.484.206 9.827 7.109 21.654 11.3 32.302 16.976 5.723 3.05 15.834 6.913 12.783 15.05-3.108 8.288-10.83 13.873-16.907 19.863-7.75 7.638-15.09 16.507-18.694 26.94-2.83 8.195-2.006 2.876-4.948-3.848-2.797-6.395-7.14-13.619-6.735-20.893.49-8.818 9.847-12.305 16.907-14.776 8.91-3.12 20.256-5.18 27.628-11.478 5.41-4.62 2.567-11.495-3.437-13.607-4.81-1.693-16.329-3.805-20.48.412-5.444 5.53.548 16.218 4.88 20.137 8.97 8.116 22.588 14.496 34.156 17.662 7.306 2 16.462 1.072 11.959-8.522-3.102-6.607-22.389-19.155-6.048-19.518 1.775-.04 29.479-1.911 23.642-6.873-3.507-2.98-16.405 6.57-13.47 3.024 3.489-4.216 6.305-8.974 9.621-13.332 1.144-1.503 8.865-9.217 2.612-8.523-10.264 1.14-21.184 6.446-30.652 10.172-16.069 6.323-33.59 13.052-47.765 23.092-6.265 4.438-4.486 7.83 2.543 8.247 12.3.73 25.153-4.633 36.494-8.59 14.933-5.212 29.896-10.757 44.328-17.25 8.343-3.755-2.56.892-4.124 1.717-6.652 3.513-82.034 50.037-80.41 51.957 3.43 4.053 25.154.622 29.278.344 15.624-1.052 31.797-3.16 46.596-8.522 8.15-2.953 2.285-4.01-2.749-4.261-13.315-.666-28.236.717-40.548 6.048-6.468 2.8-11.498 8.877-1.65 10.446 8.317 1.325 17.326-1.142 25.154-3.711 5.256-1.725 8.942-2.911 1.375-3.161-18.182-.602-32.164-8.791-46.322-19.931C15.22 60.747-.13 42.632 5.8 19.394c5.262-20.622 27.865-5.021 38.898-.138 6.125 2.711 12.518 3.5 19.106 4.193 2.705.284-5.566-.069-8.11.893-8.695 3.287-29.49 25.536-21.51 35.944 7.46 9.73 34.587-3.368 43.434-5.017 17.5-3.263-9.075 23.342-11.89 25.84-9.265 8.225-18.714 16.26-28.452 23.918-5.455 4.29-2.858 3.848 2.68 3.848 25.4 0 50.68-2.474 76.08-2.474" stroke="#F8DDEB" stroke-width="3" stroke-linecap="round"/><path d="M72.65 49.852c0-6.217-2.469-13.814-10.8-13.814-8.331 0-10.8 7.597-10.8 13.814 0 6.216 1.543 15.886 10.8 15.886 9.257 0 10.8-9.67 10.8-15.886z" stroke="#000" stroke-width="3"/><path d="M53.636 65.737c-9.925 6.325-16.086 3.866-16.086 12.65v7.379c3.765 1.405 13.348 5.622 24.3 5.622s20.535-4.217 24.3-5.622v-7.38c0-8.783-6.16-6.324-16.086-12.648" stroke="#000" stroke-width="3" stroke-linecap="round" stroke-linejoin="round"/><path d="M38.675 41.163c0-5.698-2.263-12.663-9.9-12.663-7.637 0-9.9 6.965-9.9 12.663s1.414 14.562 9.9 14.562 9.9-8.864 9.9-14.562z" stroke="#000" stroke-width="3"/><path d="M21.245 55.725C12.147 61.522 6.5 59.268 6.5 67.32v6.764c3.451 1.288 12.236 5.153 22.275 5.153.681 0 1.357-.017 2.025-.051m5.505-23.461c4.91 3.129 8.815 3.912 11.37 5.237M88.597 68.438v-4.933c-3.375 0-8.438-2.671-10.547-4.007 1.507-1.13 7.112-5.423 6.027-10.481-2.712-12.64 2.11-19.73 8.437-19.73 4.822 0 6.931 2.775 6.931 2.775s8.739-2.774 8.739 6.782c0 8.323-1.205 16.646 3.616 20.654 0 0-5.424 4.007-9.944 4.007v4.933M102.706 68.438c3.024.9 9.617 4.32 11.794 10.8H92.225" stroke="#000" stroke-width="3" stroke-linecap="round" stroke-linejoin="round"/></svg>