<svg width="119" height="25" fill="none" xmlns="http://www.w3.org/2000/svg"><path fill-rule="evenodd" clip-rule="evenodd" d="M2.99 12.5l15.033-8.64V.417L0 10.743v3.441l18.024 10.398 8.976-5.2v-3.44l-8.976 5.198L2.991 12.5zm21.017-1.758l-8.976 5.2 2.992 1.757 5.984-3.442v-3.514zm-2.992-5.125L9.048 12.5l2.991 1.757 8.976-5.199V5.617z" fill="#FF8A00"/><path d="M46.106 15.4v2.208h-9.338V5.641h9.123v2.208H39.57v2.564h5.602v2.137H39.57v2.779h6.536v.07zM61.547 5.64l-5.243 11.968h-2.73L48.331 5.641h3.017l3.663 8.548 3.735-8.548h2.801zM73.61 15.4v2.208h-9.338V5.641h9.122v2.208h-6.32v2.564h5.602v2.137h-5.603v2.779h6.537v.07zM85.247 17.608l-2.299-3.348h-2.585v3.348H77.56V5.641h5.244c1.077 0 2.011.142 2.801.498s1.365.855 1.796 1.496c.43.641.646 1.425.646 2.28 0 .855-.215 1.638-.646 2.28-.431.64-1.078 1.139-1.868 1.495l2.73 3.847h-3.017v.071zm-.718-9.19c-.431-.355-1.078-.57-1.94-.57h-2.298v4.204h2.298c.862 0 1.509-.214 1.94-.57.43-.356.646-.855.646-1.567 0-.57-.215-1.14-.646-1.496zM99.891 15.044H94.29l-1.078 2.564h-2.873l5.387-11.967h2.73l5.387 11.967h-2.945l-1.006-2.564zm-.933-2.066l-1.94-4.56-1.939 4.56h3.879zM106.862 5.64h5.459c1.293 0 2.442.214 3.448.713a6.073 6.073 0 012.37 2.066c.575.926.862 1.923.862 3.134 0 1.211-.287 2.28-.862 3.135-.574.926-1.365 1.567-2.37 2.066-1.006.498-2.155.712-3.448.712h-5.459V5.641zm5.315 9.689c1.222 0 2.155-.356 2.874-.997.718-.642 1.077-1.568 1.077-2.707 0-1.14-.359-2.066-1.077-2.707-.719-.642-1.652-.998-2.874-.998h-2.585v7.409h2.585z" fill="#000"/></svg>