<svg width="148" height="33" fill="none" xmlns="http://www.w3.org/2000/svg"><path d="M10.877 22.78c-3.208 0-6.66-2.32-8.878-5.988-2.296-3.808-2.64-8-.898-10.947C4.521.078 10.164-1.04 13.738.837c2.624 1.38 4.826 4.847 2.393 10.093-.756 1.627-.648 3.512-.542 5.334.115 2.008.225 3.905-.925 5.183-.73.814-1.865 1.247-3.467 1.325a7.75 7.75 0 01-.32.007zM10.21 1.476c-2.652 0-5.707 1.54-7.83 5.132-1.751 2.95-.69 6.798.89 9.412 2.01 3.337 5.098 5.407 7.86 5.272 1.182-.053 1.978-.338 2.426-.836.738-.82.65-2.343.548-4.108-.11-1.91-.235-4.077.677-6.042 1.997-4.294.41-7.03-1.738-8.158a6.09 6.09 0 00-2.833-.672z" fill="#FF57C6"/><path d="M16.043 16.536a9.307 9.307 0 01-4.07-.885c-1.899-.911-4.29-2.964-4.902-7.556-.234-1.755.142-3.195 1.1-4.277 2.217-2.503 7.05-2.443 10.248-2.406.37 0 .713.01 1.036.01.596 0 1.211-.017 1.864-.034 3.795-.104 8.104-.214 9.523 3.104 1.437 3.366-.127 5.526-6.98 9.628-2.67 1.6-5.369 2.416-7.819 2.416zM17.086 2.88c-2.806 0-6.287.201-7.805 1.913-.675.767-.918 1.78-.74 3.106.415 3.116 1.825 5.337 4.075 6.415 2.788 1.343 6.706.792 10.485-1.47 7.203-4.313 7.214-5.816 6.377-7.776-1.024-2.393-4.63-2.298-8.12-2.205-.632.017-1.284.034-1.902.034-.325 0-.679 0-1.054-.008-.414 0-.85-.006-1.316-.006V2.88z" fill="#10E6D9"/><path d="M22.64 25.472c-1.988 0-3.806-.495-5.269-1.468-2.052-1.366-3.255-3.575-3.477-6.388-.201-2.54.912-4.903 3.139-6.654 3.463-2.728 9.028-3.51 13.85-1.945 2.748.892 4.263 2.782 4.266 5.324 0 1.948-.924 4.23-2.541 6.262-1.581 1.985-3.617 3.494-5.588 4.134-1.412.474-2.89.722-4.38.735zm3.097-15.778c-2.94 0-5.774.842-7.792 2.432-1.284 1.014-2.78 2.77-2.569 5.374.186 2.343 1.162 4.166 2.821 5.274 2.108 1.404 5.154 1.608 8.36.56 3.59-1.172 7.111-5.625 7.108-8.989 0-1.902-1.093-3.219-3.242-3.917a15.261 15.261 0 00-4.686-.734z" fill="#ED534B"/><path d="M23.706 31.466c-.33 0-.658-.024-.983-.072a8.191 8.191 0 01-4.098-1.952c-.483-.405-1.042-.82-1.633-1.259-2.92-2.17-6.556-4.87-6.205-9.905.25-3.606 2.131-6.618 5.03-8.057 2.76-1.37 6.054-1.113 8.81.686 3.264 2.131 5.666 6.325 6.118 10.682.334 3.218-.475 5.987-2.283 7.785-1.645 1.649-3.375 2.092-4.756 2.092zm-4.138-20.648c-1.073 0-2.131.25-3.09.729-2.46 1.22-3.996 3.706-4.212 6.834-.295 4.226 2.843 6.557 5.611 8.614.614.456 1.193.886 1.712 1.322l.023.02c1.41 1.283 4.852 2.94 7.805-.011 1.483-1.48 2.14-3.819 1.855-6.584-.402-3.872-2.594-7.728-5.453-9.595a7.77 7.77 0 00-4.254-1.329h.003z" fill="#9F72FF"/><path d="M11.66 32.149a8.95 8.95 0 01-4.646-1.226c-2.357-1.404-3.957-3.991-4.28-6.933-.277-2.526-.655-5.987 3.852-8.385 3.538-1.882 9.133-1.283 13.098.143 1.313.473 4.45 1.78 5.244 3.706a6.353 6.353 0 01-.056 4.969c-1.104 2.631-3.871 4.912-8.002 6.594-2 .824-3.734 1.132-5.21 1.132zm.681-16.25c-2.13 0-3.894.403-5.053 1.02-3.372 1.787-3.407 3.893-3.078 6.911.272 2.478 1.603 4.654 3.568 5.822 2.27 1.35 5.224 1.35 8.541 0 4.748-1.933 6.533-4.22 7.195-5.796a4.901 4.901 0 00.051-3.833c-.388-.944-2.065-2.047-4.375-2.878a20.381 20.381 0 00-6.849-1.253v.007z" fill="#FFA800"/><path d="M62.987 11.591V27.53h-4.423v-1.836c-1.147 1.38-2.808 2.072-4.983 2.073a8.376 8.376 0 01-4.092-1.007 7.244 7.244 0 01-2.847-2.873c-.692-1.244-1.038-2.686-1.037-4.325 0-1.64.347-3.081 1.037-4.326a7.248 7.248 0 012.847-2.873 8.377 8.377 0 014.092-1.008c2.036 0 3.627.642 4.775 1.926v-1.689h4.631zm-8.6 12.383c1.168 0 2.137-.395 2.907-1.184.77-.81 1.156-1.886 1.157-3.23.001-1.342-.385-2.409-1.157-3.2a3.842 3.842 0 00-2.906-1.214c-1.186 0-2.164.405-2.936 1.215-.77.79-1.156 1.856-1.157 3.2 0 1.344.385 2.42 1.157 3.229.77.79 1.75 1.184 2.936 1.184zm17.386-12.027h4.093v3.556h-3.969v12.026h-4.626V11.236c0-1.817.534-3.258 1.601-4.325 1.087-1.066 2.61-1.6 4.566-1.6a7.795 7.795 0 011.958.238c.557.108 1.09.319 1.57.621l-1.217 3.348a3.156 3.156 0 00-1.868-.563c-1.405 0-2.108.77-2.108 2.307v.685zm10.917 0h4.093v3.556h-3.968v12.026h-4.62V11.236c0-1.817.533-3.258 1.6-4.325 1.087-1.066 2.61-1.6 4.566-1.6a7.811 7.811 0 011.958.238c.557.108 1.09.319 1.57.621L86.67 9.518a3.16 3.16 0 00-1.868-.563c-1.404 0-2.106.77-2.106 2.311l-.006.681zm16.108-.592c1.977 0 3.569.592 4.774 1.777 1.226 1.185 1.839 2.943 1.838 5.274v9.123h-4.621v-8.41c0-1.264-.276-2.202-.83-2.814-.553-.633-1.353-.949-2.401-.948-1.167 0-2.096.366-2.787 1.096-.692.71-1.038 1.777-1.04 3.2v7.879h-4.625V5.549h4.626v7.708a6.012 6.012 0 012.225-1.392 7.854 7.854 0 012.846-.51h-.005zm26.88.236V27.53h-4.384v-1.896a6.307 6.307 0 01-2.194 1.594 7.07 7.07 0 01-2.759.533c-2.092 0-3.753-.602-4.981-1.806-1.228-1.204-1.841-2.992-1.839-5.363v-9h4.632v8.325c0 2.566 1.077 3.849 3.232 3.849 1.107 0 1.997-.356 2.669-1.067.672-.73 1.008-1.807 1.008-3.23v-7.877h4.616zm13.715-.236a7.96 7.96 0 014.033 1.036 7.194 7.194 0 012.877 2.873c.692 1.225 1.038 2.658 1.037 4.297-.001 1.64-.347 3.08-1.037 4.325a7.453 7.453 0 01-2.877 2.873 8.14 8.14 0 01-4.033 1.007c-2.194 0-3.865-.691-5.011-2.073v1.836h-4.423V5.55h4.626v7.731c1.172-1.284 2.776-1.925 4.814-1.925h-.006zm-.8 12.619c1.185 0 2.154-.395 2.905-1.184.773-.81 1.158-1.886 1.157-3.23-.001-1.342-.386-2.409-1.157-3.2-.75-.809-1.719-1.214-2.905-1.214-1.186 0-2.165.405-2.937 1.215-.751.79-1.127 1.856-1.126 3.2.001 1.344.377 2.42 1.126 3.229.777.79 1.757 1.184 2.943 1.184h-.006z" fill="#000"/></svg>