<svg width="139" height="112" fill="none" xmlns="http://www.w3.org/2000/svg"><circle cx="63" cy="60" r="50" stroke="#FFA800" stroke-width="3"/><g clip-path="url(#clip0)"><circle cx="73" cy="50" r="50" fill="#F3F3F3"/><path d="M61.171 78.055l10.551 10.372 10.551-10.372M58.484 18.95A15.031 15.031 0 0171.177 12c2.065 0 4.033.415 5.824 1.165a80.856 80.856 0 007.466 2.704c6.135 1.884 10.593 7.573 10.593 14.3 0 3.252-1.043 6.262-2.812 8.717l-1.283 1.228M71.292 25.648a11.732 11.732 0 00-1.907-3.178 11.712 11.712 0 00-8.99-4.192 11.706 11.706 0 00-8.622 3.773 11.695 11.695 0 00-3.115 7.964c0 3.356 1.409 6.384 3.667 8.523l1.382 1.03" stroke="#fff" stroke-width="3.734"/><path d="M91.282 50.998c0 10.285-8.382 18.64-18.741 18.64-10.36 0-18.741-8.355-18.741-18.64V38.054l3.809-3.803c.135-.136.471-.225.796.02a24.841 24.841 0 0015 5.02 24.828 24.828 0 0014.032-4.325c.322-.22.638-.13.77.002l3.075 3.083v12.947zM52.615 44.755h-4.503a4.367 4.367 0 100 8.734h5.186" stroke="#fff" stroke-width="3.734"/><path d="M91.375 44.754h4.503a4.367 4.367 0 110 8.735h-5.186M63.67 67.41v10.644l-.273.038-32.455 8.522A10.645 10.645 0 0023 96.91V122h97.717V96.91c0-4.838-3.262-9.067-7.942-10.296L80.32 78.092l-.546-.038V67.41" stroke="#fff" stroke-width="3.734"/><path fill-rule="evenodd" clip-rule="evenodd" d="M50.402 20.783a13.586 13.586 0 017.42-4.129 16.891 16.891 0 0113.355-6.52c2.317 0 4.53.465 6.546 1.31a79.055 79.055 0 007.292 2.64c6.892 2.117 11.911 8.511 11.911 16.085 0 3.658-1.173 7.047-3.164 9.809l-.1.138-.513.492v2.28h2.73a6.234 6.234 0 010 12.467h-3.196c-1.344 6.18-5.487 11.321-11.042 14.046v7.108l31.609 8.3a12.513 12.513 0 019.334 12.101v26.957H21.134V96.91a12.512 12.512 0 019.334-12.101l31.335-8.228v-8.077c-4.725-2.876-8.195-7.593-9.404-13.148h-4.287a6.234 6.234 0 110-12.468h3.821v-2.314l-.812-.605-.08-.075a13.57 13.57 0 01-4.25-9.88c0-3.561 1.371-6.807 3.611-9.23zM65.537 70.29v9.39l-.045.006 6.23 6.124 6.185-6.08v-8.927c-1.71.457-3.51.702-5.366.702-2.46 0-4.818-.429-7.004-1.215zm16.846 10.275l-10.661 10.48-10.603-10.423-29.703 7.799a8.778 8.778 0 00-6.55 8.49v23.223h93.984V96.91c0-3.99-2.69-7.477-6.549-8.49l-29.918-7.856zm10.766-29.566V46.62h2.73a2.5 2.5 0 010 5h-2.74c.007-.207.01-.414.01-.623zM51.933 46.62h-3.821a2.5 2.5 0 100 5.001h3.83c-.006-.207-.009-.415-.009-.624V46.62zm41.26-16.452c0 2.082-.488 4.049-1.355 5.796l-2.31-2.316c-.835-.838-2.164-.893-3.142-.226a22.961 22.961 0 01-12.98 4 22.974 22.974 0 01-13.877-4.643c-.98-.739-2.37-.718-3.24.15l-3.446 3.44a9.825 9.825 0 01-2.319-6.355c0-2.586.992-4.936 2.62-6.698a9.845 9.845 0 017.25-3.172 9.845 9.845 0 017.562 3.525 9.867 9.867 0 011.603 2.672l3.466-1.39a13.6 13.6 0 00-2.21-3.683 13.599 13.599 0 00-7.775-4.6 13.142 13.142 0 018.137-2.802c1.813 0 3.536.364 5.103 1.02a82.773 82.773 0 007.64 2.766c5.376 1.652 9.273 6.637 9.273 12.516zM55.667 50.998c0 9.245 7.537 16.772 16.874 16.772s16.874-7.527 16.874-16.772V38.823l-1.762-1.767a26.687 26.687 0 01-14.247 4.101c-5.672 0-10.94-1.769-15.28-4.784l-2.46 2.455v12.17z" fill="url(#paint0_linear)"/><path d="M71.748 39.048c-.528 0-.972.096-1.332.288-.36.192-.636.42-.828.684-.168.264-.3.66-.396 1.188-.096.528-.156.972-.18 1.332v1.584H64.08c0-3.288.66-5.7 1.98-7.236 1.32-1.56 3.156-2.34 5.508-2.34 1.776 0 3.216.3 4.32.9 1.128.576 1.956 1.464 2.484 2.664.552 1.2.828 2.76.828 4.68 0 .12-.288.564-.864 1.332-.576.744-1.212 1.572-1.908 2.484-.672.912-1.296 1.968-1.872 3.168-.576 1.2-.864 2.256-.864 3.168h-4.104c0-.84.12-1.704.36-2.592.24-.888.528-1.692.864-2.412a21.71 21.71 0 011.116-2.088c.408-.696.78-1.272 1.116-1.728.36-.48.648-.876.864-1.188.24-.336.36-.528.36-.576v-.792c0-.192-.024-.42-.072-.684-.024-.288-.072-.504-.144-.648a1.81 1.81 0 00-.252-.468.932.932 0 00-.468-.396 2.05 2.05 0 00-.648-.216 3.584 3.584 0 00-.936-.108zM74.088 60h-4.896v-3.96h4.896V60z" fill="#000"/></g><path d="M95 71.5L105.5 61 116 71.5 126.5 61 137 71.5M2 39.5L12.5 29 23 39.5 33.5 29 44 39.5" stroke="#FFE8BC" stroke-width="3" stroke-linecap="round"/><defs><linearGradient id="paint0_linear" x1="-9.644" y1="45.492" x2="168.608" y2="72.91" gradientUnits="userSpaceOnUse"><stop stop-color="#FFA800"/><stop offset=".505" stop-color="#FF57C6"/><stop offset="1" stop-color="#10E6D9"/></linearGradient><clipPath id="clip0"><rect x="23" width="100" height="100" rx="50" fill="#fff"/></clipPath></defs></svg>