<svg width="122" height="104" fill="none" xmlns="http://www.w3.org/2000/svg"><circle cx="52" cy="52" r="50" stroke="#9F72FF" stroke-width="3"/><g clip-path="url(#clip0)"><circle cx="73.867" cy="52" r="50" fill="#F3F3F3"/><path d="M62.038 80.055l10.55 10.372L83.14 80.055M59.35 20.95A15.031 15.031 0 0172.044 14c2.066 0 4.034.415 5.825 1.165a80.877 80.877 0 007.466 2.704c6.135 1.884 10.592 7.573 10.592 14.3 0 3.252-1.042 6.262-2.811 8.717l-1.283 1.228M72.16 27.648a11.735 11.735 0 00-1.907-3.178 11.712 11.712 0 00-8.99-4.192 11.706 11.706 0 00-8.622 3.773 11.695 11.695 0 00-3.116 7.964c0 3.356 1.41 6.384 3.668 8.523l1.382 1.03" stroke="#fff" stroke-width="3.734"/><path d="M92.149 52.998c0 10.285-8.382 18.64-18.741 18.64-10.36 0-18.741-8.355-18.741-18.64V40.054l3.808-3.803c.136-.136.472-.225.797.02a24.841 24.841 0 0015 5.02 24.828 24.828 0 0014.032-4.325c.321-.22.638-.13.77.002l3.075 3.083v12.947zM53.482 46.755h-4.504a4.367 4.367 0 000 8.734h5.187" stroke="#fff" stroke-width="3.734"/><path d="M92.242 46.754h4.503a4.368 4.368 0 110 8.735H91.56M64.537 69.41v10.644l-.273.038-32.456 8.522a10.645 10.645 0 00-7.941 10.296V124h97.717V98.91c0-4.838-3.262-9.067-7.942-10.296l-32.455-8.522-.546-.038V69.41" stroke="#fff" stroke-width="3.734"/><path fill-rule="evenodd" clip-rule="evenodd" d="M51.27 22.783a13.586 13.586 0 017.418-4.129 16.891 16.891 0 0113.355-6.52c2.318 0 4.531.465 6.547 1.31a79.034 79.034 0 007.292 2.64c6.892 2.117 11.911 8.511 11.911 16.085 0 3.658-1.173 7.047-3.164 9.809l-.1.138-.513.492v2.28h2.73a6.234 6.234 0 010 12.467h-3.197c-1.343 6.18-5.486 11.321-11.041 14.046v7.108l31.608 8.3a12.512 12.512 0 019.335 12.101v26.957H22V98.91a12.512 12.512 0 019.334-12.101L62.67 78.58v-8.077c-4.725-2.876-8.196-7.593-9.404-13.148h-4.288a6.234 6.234 0 110-12.468H52.8v-2.314l-.812-.605-.08-.075a13.57 13.57 0 01-4.25-9.88c0-3.561 1.371-6.807 3.611-9.23zM66.403 72.29v9.39l-.045.006 6.23 6.124 6.185-6.08v-8.927c-1.71.457-3.51.702-5.366.702-2.46 0-4.818-.429-7.004-1.215zM83.25 82.564l-10.661 10.48-10.603-10.423-29.703 7.799a8.778 8.778 0 00-6.55 8.49v23.223h93.984V98.91c0-3.99-2.69-7.477-6.549-8.49L83.25 82.564zm10.766-29.566V48.62h2.73a2.5 2.5 0 010 5h-2.74c.007-.207.01-.414.01-.623zM52.8 48.62h-3.822a2.5 2.5 0 100 5.001h3.831c-.006-.207-.01-.415-.01-.624V48.62zM94.06 32.17c0 2.083-.488 4.049-1.356 5.796l-2.308-2.316c-.836-.838-2.165-.893-3.143-.226a22.962 22.962 0 01-12.98 4 22.975 22.975 0 01-13.877-4.643c-.98-.739-2.371-.718-3.24.15l-3.446 3.44a9.825 9.825 0 01-2.319-6.355c0-2.586.992-4.936 2.62-6.698a9.844 9.844 0 017.25-3.172 9.845 9.845 0 017.562 3.525 9.864 9.864 0 011.603 2.672l3.466-1.39a13.6 13.6 0 00-2.21-3.683 13.6 13.6 0 00-7.775-4.6 13.142 13.142 0 018.136-2.802c1.814 0 3.537.364 5.104 1.02a82.773 82.773 0 007.639 2.766c5.377 1.652 9.274 6.637 9.274 12.516zM56.533 52.998c0 9.245 7.538 16.772 16.875 16.772s16.874-7.527 16.874-16.772V40.823l-1.762-1.767a26.687 26.687 0 01-14.248 4.101c-5.67 0-10.94-1.769-15.28-4.784l-2.459 2.455v12.17z" fill="url(#paint0_linear)"/><path d="M72.615 41.048c-.528 0-.972.096-1.332.288-.36.192-.636.42-.828.684-.168.264-.3.66-.396 1.188-.096.528-.156.972-.18 1.332v1.584h-4.932c0-3.288.66-5.7 1.98-7.236 1.32-1.56 3.156-2.34 5.508-2.34 1.776 0 3.216.3 4.32.9 1.128.576 1.956 1.464 2.484 2.664.552 1.2.828 2.76.828 4.68 0 .12-.288.564-.864 1.332-.576.744-1.212 1.572-1.908 2.484-.672.912-1.296 1.968-1.872 3.168-.576 1.2-.864 2.256-.864 3.168h-4.104c0-.84.12-1.704.36-2.592.24-.888.528-1.692.864-2.412a21.71 21.71 0 011.116-2.088c.408-.696.78-1.272 1.116-1.728.36-.48.648-.876.864-1.188.24-.336.36-.528.36-.576v-.792c0-.192-.024-.42-.072-.684-.024-.288-.072-.504-.144-.648a1.81 1.81 0 00-.252-.468.932.932 0 00-.468-.396 2.05 2.05 0 00-.648-.216 3.584 3.584 0 00-.936-.108zM74.955 62h-4.896v-3.96h4.896V62z" fill="#000"/></g><circle cx="101.5" cy="90.5" r="11.5" stroke="#E4D8FF" stroke-width="3" stroke-linecap="round"/><circle cx="33.5" cy="19.5" r="11.5" stroke="#E4D8FF" stroke-width="3" stroke-linecap="round"/><defs><linearGradient id="paint0_linear" x1="-8.777" y1="47.492" x2="169.475" y2="74.91" gradientUnits="userSpaceOnUse"><stop stop-color="#FFA800"/><stop offset=".505" stop-color="#FF57C6"/><stop offset="1" stop-color="#10E6D9"/></linearGradient><clipPath id="clip0"><rect x="22" y="2" width="100" height="100" rx="50" fill="#fff"/></clipPath></defs></svg>