<svg width="26" height="20" viewBox="0 0 26 20" fill="none" xmlns="http://www.w3.org/2000/svg">
<path d="M25.9808 2.44639C25.9808 2.41668 26.0012 2.38777 25.9999 2.3584L18.0658 10.0033L25.9904 17.404C25.995 17.3511 25.9808 17.2978 25.9808 17.2438V2.44639Z" fill="black"/>
<path d="M16.8532 11.1787L13.6143 14.295C13.4504 14.4526 13.2387 14.5317 13.0269 14.5317C12.8195 14.5317 12.6121 14.456 12.4494 14.3043L9.21925 11.2944L1.24292 18.9827C1.43687 19.0524 1.64505 19.1065 1.86305 19.1065H24.1909C24.5146 19.1065 24.8182 19.0079 25.0822 18.8608L16.8532 11.1787Z" fill="black"/>
<path d="M13.0181 12.5184L25.1266 0.85437C24.8524 0.691373 24.5333 0.582031 24.1913 0.582031H1.8635C1.41811 0.582031 1.01 0.754968 0.692139 1.01872L13.0181 12.5184Z" fill="black"/>
<path d="M0 2.73047V17.2436C0 17.4102 0.0382923 17.5708 0.0798604 17.7243L7.95724 10.1386L0 2.73047Z" fill="black"/>
</svg>
