<svg width="22" height="23" viewBox="0 0 22 23" fill="none" xmlns="http://www.w3.org/2000/svg">
<path d="M11.0073 5.93359C7.88792 5.93359 5.36255 8.46172 5.36255 11.5783C5.36255 14.6977 7.89067 17.2231 11.0073 17.2231C14.1266 17.2231 16.652 14.6949 16.652 11.5783C16.652 8.45897 14.1239 5.93359 11.0073 5.93359ZM11.0073 15.2422C8.9824 15.2422 7.34343 13.6023 7.34343 11.5783C7.34343 9.55436 8.98332 7.91448 11.0073 7.91448C13.0312 7.91448 14.6711 9.55436 14.6711 11.5783C14.6721 13.6023 13.0322 15.2422 11.0073 15.2422Z" fill="black"/>
<path d="M15.5356 0.651134C13.5116 0.556719 8.49848 0.561303 6.47268 0.651134C4.69254 0.73455 3.12232 1.16446 1.85643 2.43035C-0.259204 4.54598 0.0112081 7.39677 0.0112081 11.5776C0.0112081 15.8565 -0.227121 18.6413 1.85643 20.7249C3.9803 22.8478 6.87234 22.5701 11.0037 22.5701C15.2423 22.5701 16.7052 22.5728 18.204 21.9926C20.2417 21.2015 21.7798 19.3801 21.9302 16.1086C22.0255 14.0837 22.02 9.07149 21.9302 7.04569C21.7487 3.18384 19.6761 0.841798 15.5356 0.651134ZM18.7393 19.3251C17.3524 20.712 15.4284 20.5883 10.9771 20.5883C6.39385 20.5883 4.55596 20.6561 3.2149 19.3114C1.67035 17.7742 1.94992 15.3056 1.94992 11.5629C1.94992 6.49845 1.43018 2.8511 6.51301 2.59077C7.68082 2.54952 8.02457 2.53577 10.9643 2.53577L11.0055 2.56327C15.8903 2.56327 19.7229 2.05178 19.9529 7.13369C20.0052 8.29325 20.0171 8.64158 20.0171 11.5767C20.0162 16.1068 20.1024 17.9557 18.7393 19.3251Z" fill="black"/>
<path d="M16.8737 7.02727C17.6022 7.02727 18.1928 6.43671 18.1928 5.70822C18.1928 4.97972 17.6022 4.38916 16.8737 4.38916C16.1453 4.38916 15.5547 4.97972 15.5547 5.70822C15.5547 6.43671 16.1453 7.02727 16.8737 7.02727Z" fill="black"/>
</svg>
