<svg width="26" height="21" viewBox="0 0 26 21" fill="none" xmlns="http://www.w3.org/2000/svg">
<path d="M22.4755 15.2909L19.6786 12.494C18.6797 11.4951 16.9816 11.8947 16.582 13.1932C16.2823 14.0923 15.2834 14.5917 14.3844 14.3919C12.3866 13.8924 9.68957 11.2953 9.19012 9.19758C8.89045 8.29853 9.48979 7.29962 10.3888 6.99999C11.6874 6.60043 12.0869 4.90229 11.088 3.90339L8.2911 1.10646C7.49198 0.407223 6.29329 0.407223 5.59406 1.10646L3.69614 3.00437C1.79823 5.00218 3.89592 10.2964 8.59077 14.9912C13.2856 19.6861 18.5798 21.8837 20.5776 19.8859L22.4755 17.9879C23.1748 17.1888 23.1748 15.9901 22.4755 15.2909Z" fill="black"/>
</svg>
