<svg width="28" height="17" viewBox="0 0 28 17" fill="none" xmlns="http://www.w3.org/2000/svg">
<path d="M23.235 9.75689C22.7823 9.19689 22.9118 8.94775 23.235 8.44717C23.2408 8.44146 26.9778 3.38317 27.3628 1.66775L27.3651 1.6666C27.5565 1.04146 27.3651 0.582031 26.4399 0.582031H23.3785C22.5991 0.582031 22.2398 0.976317 22.0473 1.41746C22.0473 1.41746 20.4885 5.07232 18.2835 7.44146C17.5718 8.12603 17.2428 8.34546 16.8542 8.34546C16.6629 8.34546 16.3654 8.12603 16.3654 7.50089V1.6666C16.3654 0.916888 16.1472 0.582031 15.502 0.582031H10.6882C10.1994 0.582031 9.90884 0.931746 9.90884 1.25746C9.90884 1.96832 11.0114 2.13175 11.1257 4.13175V8.47117C11.1257 9.42203 10.9495 9.59689 10.5587 9.59689C9.518 9.59689 6.99208 5.92717 5.49519 1.72717C5.19301 0.912317 4.89784 0.583174 4.11264 0.583174H1.05004C0.176173 0.583174 0 0.97746 0 1.4186C0 2.19803 1.0407 6.07346 4.8395 11.1935C7.37125 14.6883 10.9367 16.582 14.1802 16.582C16.1297 16.582 16.3677 16.1615 16.3677 15.438C16.3677 12.0986 16.1916 11.7832 17.1681 11.7832C17.6208 11.7832 18.4001 12.0026 20.2202 13.6883C22.3004 15.6872 22.6423 16.582 23.8067 16.582H26.8681C27.7408 16.582 28.183 16.1615 27.9286 15.3317C27.3464 13.5866 23.4123 9.99689 23.235 9.75689Z" fill="black"/>
</svg>
