<svg width="563" height="482" viewBox="0 0 563 482" fill="none" xmlns="http://www.w3.org/2000/svg">
<path d="M519.626 144.735L506.659 169.822L479.342 164.158L466.38 189.252L439.058 183.58" stroke="#ED534B" stroke-width="5.50515" stroke-miterlimit="10" stroke-linecap="round"/>
<path d="M391.196 206.657L378.234 231.751L350.917 226.087L337.942 251.179L310.625 245.514" stroke="#9F72FF" stroke-width="5.50515" stroke-miterlimit="10" stroke-linecap="round"/>
<path d="M254.341 273.074L241.379 298.168L214.069 292.498L201.095 317.59L173.777 311.926" stroke="#10E6D9" stroke-width="5.50515" stroke-miterlimit="10" stroke-linecap="round"/>
<path d="M213.649 224.771L200.686 249.865L173.364 244.193L160.402 269.288L133.08 263.616" stroke="#FFA800" stroke-width="5.50515" stroke-miterlimit="10" stroke-linecap="round"/>
<path d="M464.097 44.4339L451.135 69.5282L423.813 63.8564L410.85 88.9506L383.528 83.2789" stroke="#FF57C6" stroke-width="5.50515" stroke-miterlimit="10" stroke-linecap="round"/>
<path d="M527.122 199.017L514.159 224.112L486.837 218.44L473.875 243.534L446.553 237.862" stroke="#FF57C6" stroke-width="5.50515" stroke-miterlimit="10" stroke-linecap="round"/>
<path d="M328.488 109.825L315.521 134.913L288.204 129.248L275.242 154.342L247.92 148.67" stroke="#FFA800" stroke-width="5.50515" stroke-miterlimit="10" stroke-linecap="round"/>
<path d="M406.2 257.677L393.233 282.764L365.916 277.099L352.954 302.193L325.632 296.521" stroke="#FFA800" stroke-width="5.50515" stroke-miterlimit="10" stroke-linecap="round"/>
<path d="M200.852 171.372L187.885 196.459L160.575 190.789L147.605 215.888L120.283 210.216" stroke="#9F72FF" stroke-width="5.50515" stroke-miterlimit="10" stroke-linecap="round"/>
<path d="M342.875 162.461L329.912 187.555L302.598 181.878L289.628 206.977L262.306 201.305" stroke="#FF57C6" stroke-width="5.50515" stroke-miterlimit="10" stroke-linecap="round"/>
<path d="M464.125 103.99L451.162 129.084L423.845 123.419L410.878 148.506L383.561 142.842" stroke="#10E6D9" stroke-width="5.50515" stroke-miterlimit="10" stroke-linecap="round"/>
<path d="M132.004 328.713L119.037 353.8L91.7198 348.135L78.7574 373.23L51.4355 367.558" stroke="#ED534B" stroke-width="5.50515" stroke-miterlimit="10" stroke-linecap="round"/>
</svg>
