<svg width="537" height="418" viewBox="0 0 537 418" fill="none" xmlns="http://www.w3.org/2000/svg">
<path d="M316.681 118.513C376.66 150.79 425.394 190.204 455.716 227.777C470.879 246.566 481.388 264.833 486.433 281.463C491.476 298.086 491.031 312.954 484.481 325.126C477.931 337.297 465.767 345.859 449.117 350.808C432.458 355.758 411.423 357.051 387.389 354.747C339.328 350.139 279.587 331.18 219.607 298.903C159.628 266.626 110.894 227.212 80.5725 189.639C65.4094 170.85 54.9004 152.583 49.8552 135.953C44.8124 119.33 45.2574 104.462 51.8072 92.2903C58.357 80.1189 70.521 71.5566 87.1715 66.6083C103.83 61.6577 124.865 60.3652 148.899 62.6693C196.96 67.2768 256.701 86.2363 316.681 118.513Z" stroke="#ED534B" stroke-width="3.09407"/>
<path d="M306.034 113.546C369.315 138.743 422.241 172.318 456.665 206.172C473.88 223.101 486.411 240.045 493.327 255.988C500.24 271.924 501.501 286.745 496.387 299.587C491.274 312.428 480.171 322.327 464.196 329.149C448.214 335.975 427.466 339.667 403.326 340.13C355.053 341.056 293.534 329.061 230.253 303.864C166.973 278.667 114.047 245.092 79.6222 211.238C62.4076 194.309 49.876 177.365 42.9599 161.422C36.047 145.487 34.7866 130.665 39.8997 117.824C45.0129 104.982 56.1164 95.0836 72.0909 88.2614C88.0729 81.436 108.821 77.7435 132.961 77.2805C181.234 76.3548 242.753 88.3493 306.034 113.546Z" stroke="#ED534B" stroke-width="3.09407"/>
<path d="M296.937 110.409C362.303 129.556 418.146 158.015 455.596 188.489C474.323 203.728 488.39 219.421 496.772 234.645C505.149 249.861 507.795 264.499 503.91 277.764C500.024 291.028 489.899 301.925 474.635 310.217C459.364 318.512 439.054 324.135 415.064 326.862C367.091 332.314 304.718 326.145 239.352 306.998C173.985 287.851 118.142 259.392 80.6925 228.918C61.9651 213.679 47.8987 197.986 39.5169 182.762C31.139 167.546 28.4932 152.908 32.3786 139.643C36.2641 126.379 46.3896 115.481 61.6533 107.19C76.9242 98.8951 97.2346 93.2716 121.224 90.5453C169.197 85.0933 231.57 91.2615 296.937 110.409Z" stroke="#ED534B" stroke-width="3.09407"/>
</svg>
