<svg width="592" height="501" viewBox="0 0 592 501" fill="none" xmlns="http://www.w3.org/2000/svg">
<path d="M72.1277 163.735L85.0947 188.822L112.412 183.158L125.374 208.252L152.696 202.58" stroke="#ED534B" stroke-width="5.50515" stroke-miterlimit="10" stroke-linecap="round"/>
<path d="M200.557 225.657L213.52 250.751L240.837 245.086L253.811 270.179L281.129 264.514" stroke="#9F72FF" stroke-width="5.50515" stroke-miterlimit="10" stroke-linecap="round"/>
<path d="M59.6219 109.043L57.1763 110.306L58.1353 112.163L60.1814 111.738L59.6219 109.043ZM87.5033 106.066C88.9918 105.757 89.948 104.3 89.639 102.812C89.33 101.323 87.8728 100.367 86.3844 100.676L87.5033 106.066ZM60.0006 103.778C59.303 102.428 57.6425 101.898 56.2918 102.596C54.9412 103.294 54.4118 104.954 55.1095 106.305L60.0006 103.778ZM60.1814 111.738L87.5033 106.066L86.3844 100.676L59.0624 106.348L60.1814 111.738ZM55.1095 106.305L57.1763 110.306L62.0675 107.78L60.0006 103.778L55.1095 106.305Z" fill="#FFA800"/>
<path d="M337.412 292.073L350.375 317.168L377.685 311.498L390.659 336.59L417.976 330.926" stroke="#10E6D9" stroke-width="5.50515" stroke-miterlimit="10" stroke-linecap="round"/>
<path d="M378.105 243.771L391.068 268.865L418.39 263.193L431.352 288.287L458.674 282.616" stroke="#FFA800" stroke-width="5.50515" stroke-miterlimit="10" stroke-linecap="round"/>
<path d="M127.657 63.4339L140.619 88.5281L167.941 82.8564L180.903 107.951L208.225 102.279" stroke="#FF57C6" stroke-width="5.50515" stroke-miterlimit="10" stroke-linecap="round"/>
<path d="M64.6321 218.017L77.5945 243.112L104.916 237.44L117.879 262.534L145.201 256.862" stroke="#FF57C6" stroke-width="5.50515" stroke-miterlimit="10" stroke-linecap="round"/>
<path d="M263.265 128.826L276.232 153.913L303.55 148.248L316.512 173.342L343.834 167.67" stroke="#FFA800" stroke-width="5.50515" stroke-miterlimit="10" stroke-linecap="round"/>
<path d="M185.553 276.677L198.52 301.764L225.838 296.099L238.8 321.193L266.122 315.521" stroke="#FFA800" stroke-width="5.50515" stroke-miterlimit="10" stroke-linecap="round"/>
<path d="M390.902 190.372L403.869 215.459L431.179 209.789L444.149 234.888L471.47 229.216" stroke="#9F72FF" stroke-width="5.50515" stroke-miterlimit="10" stroke-linecap="round"/>
<path d="M248.879 181.461L261.841 206.555L289.156 200.878L302.126 225.977L329.448 220.305" stroke="#FF57C6" stroke-width="5.50515" stroke-miterlimit="10" stroke-linecap="round"/>
<path d="M127.629 122.989L140.592 148.084L167.909 142.419L180.876 167.506L208.193 161.841" stroke="#10E6D9" stroke-width="5.50515" stroke-miterlimit="10" stroke-linecap="round"/>
<path d="M459.75 347.713L472.717 372.8L500.034 367.135L512.996 392.23L540.318 386.558" stroke="#ED534B" stroke-width="5.50515" stroke-miterlimit="10" stroke-linecap="round"/>
</svg>
