<svg width="628" height="628" viewBox="0 0 628 628" fill="none" xmlns="http://www.w3.org/2000/svg">
<path d="M34.1494 474.677L44.6077 430.069C51.0139 402.745 72.3491 381.409 99.6736 375.003V375.003C126.998 368.597 148.333 347.262 154.74 319.937V319.937C161.146 292.613 182.481 271.277 209.805 264.871V264.871C237.13 258.465 258.465 237.13 264.871 209.805V209.805C271.278 182.481 292.613 161.146 319.937 154.739V154.739C347.262 148.333 368.597 126.998 375.003 99.6735V99.6735C381.41 72.3489 402.745 51.0137 430.069 44.6075L474.677 34.1493" stroke="#D8D8D8" stroke-width="2"/>
<path d="M58.9077 499.435L69.3659 454.827C75.7721 427.503 97.1073 406.168 124.432 399.761V399.761C151.756 393.355 173.092 372.02 179.498 344.696V344.696C185.904 317.371 207.239 296.036 234.564 289.63V289.63C261.888 283.223 283.223 261.888 289.63 234.564V234.564C296.036 207.239 317.371 185.904 344.696 179.498V179.498C372.02 173.091 393.355 151.756 399.762 124.432V124.432C406.168 97.1072 427.503 75.772 454.827 69.3658L499.435 58.9076" stroke="#D8D8D8" stroke-width="2"/>
<path d="M84.5198 525.047L94.9781 480.44C101.384 453.115 122.72 431.78 150.044 425.374V425.374C177.369 418.968 198.704 397.632 205.11 370.308V370.308C211.516 342.983 232.851 321.648 260.176 315.242V315.242C287.5 308.836 308.836 287.5 315.242 260.176V260.176C321.648 232.851 342.983 211.516 370.308 205.11V205.11C397.632 198.704 418.968 177.369 425.374 150.044V150.044C431.78 122.72 453.115 101.384 480.44 94.9781L525.047 84.5199" stroke="#D8D8D8" stroke-width="2"/>
<path d="M110.132 550.659L120.59 506.052C126.996 478.727 148.332 457.392 175.656 450.986V450.986C202.981 444.579 224.316 423.244 230.722 395.92V395.92C237.128 368.595 258.464 347.26 285.788 340.854V340.854C313.113 334.447 334.448 313.112 340.854 285.788V285.788C347.26 258.463 368.595 237.128 395.92 230.722V230.722C423.244 224.316 444.58 202.98 450.986 175.656V175.656C457.392 148.331 478.727 126.996 506.052 120.59L550.659 110.132" stroke="#D8D8D8" stroke-width="2"/>
<path d="M135.744 576.271L146.202 531.664C152.609 504.339 173.944 483.004 201.268 476.598V476.598C228.593 470.192 249.928 448.856 256.334 421.532V421.532C262.74 394.207 284.076 372.872 311.4 366.466V366.466C338.725 360.06 360.06 338.725 366.466 311.4V311.4C372.872 284.076 394.208 262.74 421.532 256.334V256.334C448.857 249.928 470.192 228.593 476.598 201.268V201.268C483.004 173.944 504.339 152.608 531.664 146.202L576.272 135.744" stroke="#D8D8D8" stroke-width="2"/>
<path d="M161.356 601.883L171.814 557.276C178.22 529.951 199.555 508.616 226.88 502.21V502.21C254.204 495.803 275.54 474.468 281.946 447.144V447.144C288.352 419.819 309.687 398.484 337.012 392.078V392.078C364.336 385.672 385.672 364.336 392.078 337.012V337.012C398.484 309.687 419.819 288.352 447.144 281.946V281.946C474.468 275.54 495.803 254.205 502.21 226.88V226.88C508.616 199.555 529.951 178.22 557.276 171.814L601.883 161.356" stroke="#D8D8D8" stroke-width="2"/>
<path d="M186.968 627.495L197.426 582.887C203.832 555.563 225.168 534.228 252.492 527.822V527.822C279.817 521.415 301.152 500.08 307.558 472.756V472.756C313.964 445.431 335.3 424.096 362.624 417.69V417.69C389.949 411.283 411.284 389.948 417.69 362.624V362.624C424.096 335.299 445.431 313.964 472.756 307.558V307.558C500.08 301.152 521.416 279.816 527.822 252.492V252.492C534.228 225.167 555.563 203.832 582.888 197.426L627.495 186.968" stroke="#D8D8D8" stroke-width="2"/>
</svg>
