<svg width="1141" height="1481" viewBox="0 0 1141 1481" fill="none" xmlns="http://www.w3.org/2000/svg">
<path d="M644 67.5001C762 60.8335 1033 -76.5 1114.5 67.5001C1213.83 243 1000.62 351.384 609 412C321.5 456.5 -42.501 508.687 7.00002 721.5C54.6158 926.208 292.5 816 644 741.5C1157 632.77 1183.5 917.5 990.5 1029C797.5 1140.5 200 1041.5 73.5 1150.5C-61.3225 1266.67 104.5 1439 274.5 1457.5C444.5 1476 770 1493.9 868 1457.5" stroke="#D9D9D9" stroke-width="3"/>
<path d="M691 34.9999C809 28.3332 998 -53.6354 1087.5 104.5C1186.83 280 1008.12 375.884 616.5 436.5C329 481 -0.50099 565.687 49.0001 778.5C96.6159 983.208 156 771.5 507.5 697C1020.5 588.27 1191 935 998 1046.5C805 1158 217.5 1071 91 1180C-43.8225 1296.17 12 1460.5 237.5 1475C512 1485 662 1433.5 802.5 1443" stroke="#FF57C6" stroke-opacity="0.5" stroke-width="3"/>
</svg>
