<svg width="134" height="134" viewBox="0 0 134 134" fill="none" xmlns="http://www.w3.org/2000/svg">
<path d="M67 0L73.965 34.4875L94.2514 5.83568L86.6908 40.1957L116.791 22.3337L96.0118 50.625L130.721 46.6414L100.316 63.9722L133.633 74.5557L98.8604 77.9293L125.024 101.25L91.8954 90.0832L106.382 122.109L80.6257 98.3322L80.9301 133.525L67 101.25L53.0699 133.525L53.3743 98.3322L27.6184 122.109L42.1046 90.0832L8.9763 101.25L35.1396 77.9293L0.367035 74.5557L33.6835 63.9722L3.27921 46.6414L37.9882 50.625L17.2093 22.3337L47.3092 40.1957L39.7486 5.83568L60.035 34.4875L67 0Z" fill="#ED534B"/>
</svg>
