<svg width="726" height="168" viewBox="0 0 726 168" fill="none" xmlns="http://www.w3.org/2000/svg">
<path d="M133.257 2L164.436 28.2755L195.635 2L226.814 28.2755L258.013 2L289.202 28.2755L320.391 2L351.58 28.2755L382.769 2L413.958 28.2755L445.147 2L476.336 28.2755L507.525 2L538.713 28.2755L569.912 2L601.101 28.2755L632.3 2L663.499 28.2755" stroke="#D8D8D8" stroke-width="3" stroke-miterlimit="10" stroke-linecap="round"/>
<path d="M70 34.8389L101.189 61.1045L132.378 34.8389L163.567 61.1045L194.756 34.8389L225.945 61.1045L257.134 34.8389L288.323 61.1045L319.512 34.8389L350.701 61.1045L381.89 34.8389L413.079 61.1045L444.268 34.8389L475.467 61.1045L506.656 34.8389L537.845 61.1045L569.044 34.8389L600.242 61.1045" stroke="#D8D8D8" stroke-width="3" stroke-miterlimit="10" stroke-linecap="round"/>
<path d="M70.5436 67.6792L101.733 93.9448L132.922 67.6792L164.111 93.9448L195.3 67.6792L226.489 93.9448L257.678 67.6792L288.867 93.9448L320.065 67.6792L351.254 93.9448L382.443 67.6792L413.632 93.9448L444.821 67.6792L476.01 93.9448L507.209 67.6792L538.398 93.9448L569.597 67.6792L600.796 93.9448" stroke="#D8D8D8" stroke-width="3" stroke-miterlimit="10" stroke-linecap="round"/>
<path d="M133.257 100.508L164.436 126.783L195.635 100.508L226.814 126.783L258.013 100.508L289.202 126.783L320.391 100.508L351.58 126.783L382.769 100.508L413.958 126.783L445.147 100.508L476.336 126.783L507.525 100.508L538.713 126.783L569.912 100.508L601.101 126.783L632.3 100.508L663.499 126.783" stroke="#D8D8D8" stroke-width="3" stroke-miterlimit="10" stroke-linecap="round"/>
<path d="M193.758 133.348L224.947 159.614L256.136 133.348L287.325 159.614L318.514 133.348L349.703 159.614L380.892 133.348L412.081 159.614L443.27 133.348L474.468 159.614L505.648 133.348L536.837 159.614L568.035 133.348L599.224 159.614L630.413 133.348L661.612 159.614L692.811 133.348L724 159.614" stroke="#D8D8D8" stroke-width="3" stroke-miterlimit="10" stroke-linecap="round"/>
<path d="M91.7759 28.2199L106.415 8.93395L107.059 33.259L107.108 35.1106L108.63 34.0538L128.446 20.287L121.628 43.6368L121.113 45.4022L122.875 44.8751L145.936 37.9766L132.316 58.0619L131.291 59.5732L133.117 59.6228L157.17 60.2755L138.079 75.1218L136.644 76.2378L138.355 76.8523L161.042 85L138.355 93.1477L136.644 93.7622L138.079 94.8782L157.17 109.724L133.117 110.377L131.291 110.427L132.316 111.938L145.936 132.023L122.875 125.125L121.113 124.598L121.628 126.363L128.446 149.713L108.63 135.946L107.108 134.889L107.059 136.741L106.415 161.066L91.7759 141.78L90.6511 140.298L90.0356 142.054L82 164.977L73.9644 142.054L73.3489 140.298L72.2241 141.78L57.5849 161.066L56.9406 136.741L56.8916 134.889L55.3704 135.946L35.5544 149.713L42.372 126.363L42.8874 124.598L41.1255 125.125L18.0642 132.023L31.6839 111.938L32.7087 110.427L30.8834 110.377L6.83034 109.724L25.9206 94.8782L27.3557 93.7622L25.6447 93.1477L2.95849 85L25.6447 76.8523L27.3557 76.2378L25.9206 75.1218L6.83035 60.2755L30.8834 59.6228L32.7087 59.5732L31.6839 58.0619L18.0642 37.9766L41.1255 44.8751L42.8874 45.4022L42.372 43.6368L35.5544 20.287L55.3704 34.0538L56.8916 35.1106L56.9406 33.259L57.5849 8.93394L72.2241 28.2199L73.3489 29.7017L73.9644 27.9461L82 5.02288L90.0356 27.9461L90.6511 29.7017L91.7759 28.2199Z" fill="white" stroke="#FFA800" stroke-width="2"/>
</svg>
