<svg width="537" height="418" viewBox="0 0 537 418" fill="none" xmlns="http://www.w3.org/2000/svg">
<path d="M219.607 118.513C159.627 150.79 110.893 190.204 80.5716 227.777C65.4086 246.566 54.8995 264.833 49.8543 281.463C44.8115 298.085 45.2565 312.954 51.8063 325.125C58.3562 337.297 70.5201 345.859 87.1706 350.807C103.829 355.758 124.864 357.051 148.898 354.746C196.959 350.139 256.7 331.179 316.68 298.902C376.659 266.626 425.393 227.212 455.715 189.639C470.878 170.85 481.387 152.582 486.432 135.952C491.475 119.33 491.03 104.462 484.48 92.2901C477.93 80.1186 465.766 71.5563 449.116 66.6081C432.457 61.6575 411.423 60.3649 387.388 62.669C339.327 67.2766 279.586 86.2361 219.607 118.513Z" stroke="#FFA800" stroke-width="3.09407"/>
<path d="M230.253 113.546C166.973 138.743 114.047 172.318 79.6222 206.172C62.4076 223.101 49.876 240.045 42.9599 255.988C36.047 271.923 34.7866 286.745 39.8997 299.587C45.0129 312.428 56.1165 322.327 72.0909 329.149C88.0729 335.974 108.821 339.667 132.961 340.13C181.234 341.056 242.753 329.061 306.034 303.864C369.315 278.667 422.241 245.092 456.665 211.238C473.88 194.309 486.411 177.365 493.327 161.422C500.24 145.487 501.501 130.665 496.387 117.823C491.274 104.982 480.171 95.0833 464.196 88.2612C448.214 81.4358 427.466 77.7432 403.326 77.2803C355.053 76.3545 293.534 88.349 230.253 113.546Z" stroke="#FFA800" stroke-width="3.09407"/>
<path d="M239.351 110.409C173.984 129.556 118.141 158.015 80.6914 188.489C61.964 203.728 47.8976 219.421 39.5158 234.645C31.1379 249.861 28.4921 264.499 32.3775 277.764C36.263 291.028 46.3886 301.925 61.6522 310.217C76.9231 318.512 97.2335 324.135 121.223 326.862C169.196 332.314 231.569 326.145 296.936 306.998C362.302 287.851 418.145 259.392 455.595 228.918C474.322 213.679 488.389 197.986 496.77 182.762C505.148 167.546 507.794 152.908 503.909 139.643C500.023 126.379 489.898 115.481 474.634 107.19C459.363 98.8951 439.053 93.2716 415.063 90.5453C367.09 85.0933 304.717 91.2615 239.351 110.409Z" stroke="#FFA800" stroke-width="3.09407"/>
</svg>
