<svg width="121" height="120" viewBox="0 0 121 120" fill="none" xmlns="http://www.w3.org/2000/svg">
<path d="M35.6256 25.9915C28.0979 46.4667 28.5438 71.3346 50.1955 82.7594C62.4068 89.2028 79.268 95.9469 93.2182 91.6938C102.681 88.8087 105.825 80.3756 100.778 71.7632C92.862 58.2542 75.103 53.2378 60.8481 50.5268C49.4235 48.354 25.349 43.4398 15.9699 53.7569C5.90192 64.8316 57.6945 76.0292 67.1022 68.1894C81.2988 56.3589 30.5175 31.1792 24.3545 28.6031C23.1804 28.1123 6.45033 22.7183 14.8702 28.8093C24.6967 35.9177 36.5244 40.1098 47.1716 45.7847C52.8952 48.8353 63.0063 52.698 59.9547 60.8357C56.847 69.1228 49.1242 74.7082 43.048 80.6976C35.2989 88.336 27.9586 97.2053 24.3545 107.638C21.5236 115.833 22.3479 110.514 19.4062 103.79C16.6085 97.3949 12.2669 90.1715 12.671 82.8968C13.1609 74.0786 22.5178 70.5916 29.5777 68.1207C38.4889 65.0018 49.8338 62.9402 57.2056 56.6434C62.6151 52.0228 59.7726 45.1479 53.7693 43.0356C48.9592 41.3431 37.44 39.231 33.2889 43.448C27.8446 48.9787 33.8373 59.6661 38.1684 63.5848C47.1388 71.7008 60.7567 78.0812 72.3254 81.2474C79.6313 83.2469 88.7871 82.3194 84.2838 72.7253C81.1825 66.1183 61.8955 53.5702 78.2359 53.2071C80.0108 53.1676 107.715 51.296 101.878 46.3345C98.3713 43.3541 85.4733 52.9037 88.4073 49.3584C91.8969 45.1419 94.7127 40.3841 98.029 36.0255C99.1726 34.5226 106.894 26.8086 100.641 27.5035C90.3766 28.6439 79.4567 33.9493 69.9887 37.675C53.9202 43.9979 36.3985 50.7267 22.224 60.767C15.9585 65.205 17.7385 68.5972 24.7668 69.0141C37.0676 69.7438 49.9201 64.381 61.2605 60.4233C76.1941 55.2116 91.1568 49.6675 105.589 43.1731C113.932 39.4185 103.029 44.0656 101.465 44.8912C94.8134 48.4041 19.4308 94.928 21.0556 96.8483C24.4851 100.901 46.2095 97.4696 50.333 97.1919C65.9568 96.1398 82.13 94.0319 96.9294 88.6698C105.079 85.7172 99.2137 84.6605 94.1803 84.4088C80.8654 83.7431 65.9436 85.1258 53.6319 90.4567C47.1645 93.257 42.1344 99.3344 51.9824 100.903C60.2987 102.228 69.3079 99.7606 77.1362 97.1919C82.3923 95.4672 86.0784 94.2807 78.5108 94.0305C60.329 93.4294 46.3474 85.2398 32.1893 74.0999C15.2188 60.7472 -0.131464 42.6323 5.79838 19.3938C11.0606 -1.22838 33.664 14.3727 44.6974 19.2563C50.8216 21.967 57.2154 22.7552 63.8033 23.4486C66.508 23.7333 58.2375 23.3804 55.6936 24.3421C46.998 27.6294 26.2027 49.8776 34.1823 60.2859C41.6424 70.0165 68.7705 56.9183 77.6173 55.2689C95.117 52.0062 68.5425 78.6114 65.7277 81.1099C56.4624 89.3342 47.0128 97.3688 37.275 105.027C31.82 109.317 34.4171 108.875 39.9553 108.875C65.355 108.875 90.6356 106.401 116.035 106.401" stroke="#F8DDEB" stroke-width="3" stroke-linecap="round"/>
<path d="M72.65 49.8516C72.65 43.6353 70.1815 36.0376 61.85 36.0376C53.5186 36.0376 51.05 43.6353 51.05 49.8516C51.05 56.0678 52.5929 65.7376 61.85 65.7376C71.1072 65.7376 72.65 56.0678 72.65 49.8516Z" stroke="black" stroke-width="3"/>
<path d="M53.636 65.7375C43.7106 72.0622 37.55 69.6026 37.55 78.3869V85.7656C41.3148 87.1711 50.8979 91.3876 61.85 91.3876C72.8022 91.3876 82.3853 87.1711 86.1501 85.7656V78.3869C86.1501 69.6026 79.9895 72.0622 70.0641 65.7375" stroke="black" stroke-width="3" stroke-linecap="round" stroke-linejoin="round"/>
<path d="M38.675 41.1628C38.675 35.4645 36.4121 28.5 28.775 28.5C21.1379 28.5 18.875 35.4645 18.875 41.1628C18.875 46.861 20.2893 55.725 28.775 55.725C37.2607 55.725 38.675 46.861 38.675 41.1628Z" stroke="black" stroke-width="3"/>
<path d="M21.2454 55.7249C12.1472 61.5225 6.5 59.2678 6.5 67.3201V74.0839C9.95106 75.3723 18.7356 79.2374 28.775 79.2374C29.4562 79.2374 30.1316 79.2196 30.8 79.186M36.3046 55.7249C41.2151 58.854 45.1203 59.6374 47.675 60.9617" stroke="black" stroke-width="3" stroke-linecap="round" stroke-linejoin="round"/>
<path d="M88.5969 68.4376C88.5969 67.41 88.5969 64.985 88.5969 63.5053C85.2219 63.5053 80.1594 60.8337 78.05 59.4978C79.5567 58.3675 85.1623 54.0752 84.0768 49.0167C81.3648 36.3778 86.1862 29.2876 92.5143 29.2876C97.3358 29.2876 99.4451 32.062 99.4451 32.062C99.4451 32.062 108.184 29.2876 108.184 38.8439C108.184 47.1671 106.979 55.4904 111.8 59.4978C111.8 59.4978 106.376 63.5053 101.856 63.5053V68.4376" stroke="black" stroke-width="3" stroke-linecap="round" stroke-linejoin="round"/>
<path d="M102.706 68.4375C105.73 69.3375 112.323 72.7575 114.5 79.2375H96.356H92.225" stroke="black" stroke-width="3" stroke-linecap="round" stroke-linejoin="round"/>
</svg>
