<svg width="121" height="120" viewBox="0 0 121 120" fill="none" xmlns="http://www.w3.org/2000/svg">
<path d="M39.3757 28.8974C38.104 37.9265 34.6676 44.3351 29.3086 51.6788C27.0065 54.8335 18.5335 63.9744 20.6584 68.7555C21.5861 70.8427 37.4289 56.1524 38.63 55.2209C44.2454 50.8661 50.3892 47.0799 56.5269 43.5133C61.2857 40.7481 60.0749 40.5262 55.7812 42.4693C41.162 49.0853 28.3982 62.6032 17.3773 73.8263C15.7284 75.5055 7.74376 82.1341 8.27967 85.2729C8.65547 87.4741 15.4324 86.5567 16.5197 86.4288C24.8239 85.4518 32.8996 81.6741 40.5688 78.5616C49.1423 75.0821 57.7299 71.2761 65.1026 65.5863C78.0677 55.5806 59.9584 49.6208 51.3443 48.4723C43.5931 47.4388 24.9687 47.056 27.3698 59.9189C30.1719 74.9304 53.5771 76.7229 64.8789 80.9478C68.0528 82.1343 64.9181 83.4326 63.1637 83.8561C56.9857 85.3473 49.9933 84.6536 43.7008 84.6018C42.3482 84.5907 30.5018 85.273 30.5018 82.402C30.5018 78.1073 41.8507 73.2167 44.3719 71.8502C53.972 66.6467 63.857 61.8313 72.7088 55.3701C77.4837 51.8848 84.8702 46.2977 83.5216 39.3746C81.1992 27.4531 56.8554 25.6526 49.8901 33.5208C37.4144 47.6138 80.9536 66.851 88.5178 72.0739C92.9855 75.1588 100.091 80.441 98.5848 86.9135C96.8529 94.3561 87.9012 96.9012 81.4336 97.7635C74.0524 98.7477 66.3374 98.3699 59.0996 96.6077C56.3201 95.9309 48.9039 92.9943 56.005 91.6115C66.9832 89.4736 78.4541 89.8948 89.5245 88.1439C97.3624 86.9042 110.342 85.2827 114.841 77.443C123.622 62.1445 85.718 49.9042 76.9593 47.652C72.0479 46.3891 58.6797 43.7999 61.7469 47.8384C62.8923 49.3465 66.3801 50.9314 67.7126 51.4924C73.9977 54.1387 80.6876 55.92 87.2874 57.5699C92.4511 58.8608 97.6623 59.9221 102.873 61.0002C106.136 61.6754 96.2601 60.1251 92.992 59.4715C82.722 57.4174 72.6333 54.509 62.7163 51.1568C60.0203 50.2455 48.5292 46.8132 57.7201 45.303C66.396 43.8774 75.3069 44.6637 84.0436 43.9607C90.3147 43.4562 86.5019 43.0082 82.8504 42.9913C70.4226 42.9338 57.993 42.9913 45.565 42.9913C40.717 42.9913 33.6225 42.9628 28.6748 43.0659C25.719 43.1275 17.8481 42.4305 15.1402 44.9302C11.8077 48.0062 25.743 53.6174 26.3258 53.8786C40.0489 60.0304 54.6519 64.5454 67.6753 72.1858C84.8606 82.2678 59.7604 87.1782 51.7171 88.6286C48.1914 89.2644 38.8991 91.0884 41.9111 93.0283C42.8434 93.6288 46.5023 94.2028 47.0565 94.296C53.0467 95.3034 59.0946 96.0665 65.1399 96.645C77.4352 97.8216 90.5525 99.5073 102.91 98.3974C109.312 97.8223 99.1017 95.6934 98.5103 95.5637C90.5765 93.8238 82.6101 92.2434 74.6476 90.642C70.102 89.7278 66.5724 89.0298 62.0825 88.0321C60.8939 87.7679 54.0362 86.9513 52.9475 85.2729C52.6971 84.8868 71.3256 80.569 71.4411 80.5377C83.7298 77.2118 97.2209 72.6236 107.16 64.3186C112.455 59.8949 116.157 53.5997 110.442 47.9503C102.431 40.0332 90.1938 35.9225 79.793 32.4023C75.5402 30.9629 70.8825 29.5795 66.5194 28.45C64.2369 27.8592 57.8351 28.0333 59.6962 26.5858C62.1232 24.6981 71.0681 26.7391 73.6036 26.884" stroke="#EAEAEA" stroke-width="3" stroke-linecap="round"/>
<path d="M28 46H93V85C93 91.0751 88.0751 96 82 96H39C32.9249 96 28 91.0751 28 85V46Z" stroke="black" stroke-width="3"/>
<rect width="81" height="11" rx="5.5" transform="matrix(1 0 0 -1 20 46)" stroke="black" stroke-width="3"/>
<rect x="56" y="46" width="9" height="50" rx="4.5" stroke="black" stroke-width="3"/>
<rect x="93" y="57" width="8" height="65" rx="4" transform="rotate(90 93 57)" stroke="black" stroke-width="3"/>
<path d="M53.8683 17.2617C56.7743 20.1676 59.5668 33.5667 59.5668 33.5667C59.5668 33.5667 46.1677 30.7742 43.2617 27.8683C40.3557 24.9623 40.3744 20.2322 43.3033 17.3033C46.2322 14.3743 50.9623 14.3557 53.8683 17.2617Z" stroke="black" stroke-width="3"/>
<path d="M69.0018 17.2617C66.0958 20.1676 63.3034 33.5667 63.3034 33.5667C63.3034 33.5667 76.7025 30.7742 79.6084 27.8683C82.5144 24.9623 82.4957 20.2322 79.5668 17.3033C76.6379 14.3743 71.9078 14.3557 69.0018 17.2617Z" stroke="black" stroke-width="3"/>
</svg>
