<svg width="120" height="120" viewBox="0 0 120 120" fill="none" xmlns="http://www.w3.org/2000/svg">
<path d="M44.7391 22C38.8786 32.6151 32.0957 42.1766 24.7351 51.809C23.5726 53.3303 9.8676 68.529 12.1724 70.6749C16.3555 74.5695 28.0821 63.6635 30.5568 61.2638C37.9242 54.1197 46.2655 44.9572 48.5035 34.6064C49.8764 28.2566 40.6087 38.7272 40.2743 39.1588C30.6208 51.617 20.9665 66.4964 14.7112 81.0051C12.1453 86.9567 13.3219 90.1697 20.0952 86.7831C27.9094 82.876 34.8157 76.5058 41.4124 70.8937C47.9602 65.3232 54.8446 59.6183 60.322 52.9471C63.8393 48.6631 66.7923 43.8098 69.3391 38.8961C69.4261 38.7283 73.7035 30.7604 69.4267 33.1182C59.0816 38.8213 51.5579 53.3666 45.133 62.6208C44.1114 64.0922 26.2278 88.206 28.1056 89.2343C31.3289 90.9995 40.2707 84.9633 42.5504 83.719C52.5388 78.2675 62.3084 72.0862 71.5277 65.4222C79.3907 59.7386 86.9479 53.5603 93.7641 46.6438C98.3193 42.0216 104.481 35.9124 105.801 29.1787C106.412 26.0659 103.691 25.8212 101.293 26.3772C94.6609 27.9151 88.7458 32.3571 84.0466 37.1015C77.3012 43.9117 71.4955 51.8639 65.4872 59.294C54.437 72.9591 43.1375 86.481 32.5703 100.528C30.6619 103.064 22.7606 111.34 23.2031 115.41C23.4716 117.88 31.2147 114.417 31.3447 114.36C50.4934 105.901 68.9155 92.7784 85.316 79.9546C92.3485 74.4558 99.1775 68.5849 105.145 61.9204C106.998 59.8513 114.702 52.0984 112.586 48.2634C108.894 41.5715 88.9969 59.6415 87.242 61.4389C83.8609 64.9019 56.6442 95.6079 64.174 100.09C72.3189 104.938 89.3803 95.3856 96.3904 91.9482C101.294 89.5436 106.943 87.0025 111.186 83.4564C112.723 82.1715 112.72 80.848 110.398 81.4429C100.37 84.011 91.8601 93.5034 84.6157 100.309C83.3821 101.468 79.3428 104.374 80.9388 103.811C83.835 102.788 86.6216 101.486 89.4744 100.353C90.9703 99.7583 104.345 94 104.62 97.2009C104.846 99.8399 103.569 102.41 101.118 103.46C96.999 105.226 91.4849 102.921 87.9862 100.878C65.4269 87.7065 46.2989 67.6852 28.1056 49.314C21.5417 42.6858 15.1089 35.9328 8.408 29.4413C6.65692 27.7449 1.35431 22.8662 3.5055 24.0135C9.54249 27.2333 15.195 32.1568 20.708 36.1385C31.3285 43.8088 41.4447 52.0353 51.3487 60.6072C58.7504 67.0133 65.9819 73.5797 72.9285 80.4799C77.3237 84.8458 81.9231 91.8349 87.1107 95.3625C87.4155 95.5697 86.7232 92.4613 86.4979 92.1233" stroke="#FFE5B4" stroke-width="3" stroke-linecap="round"/>
<circle cx="59.5" cy="59.5" r="38.5" stroke="black" stroke-width="3"/>
<circle cx="43.3548" cy="45.8387" r="4.96774" stroke="black" stroke-width="3"/>
<circle cx="75.6451" cy="45.8387" r="4.96774" stroke="black" stroke-width="3"/>
<path d="M72.3333 71.5054C72.3333 78.3644 66.773 83.9247 59.914 83.9247C53.055 83.9247 47.4946 78.3644 47.4946 71.5054" stroke="black" stroke-width="3"/>
</svg>
