<svg width="121" height="120" viewBox="0 0 121 120" fill="none" xmlns="http://www.w3.org/2000/svg">
<g clip-path="url(#clip0)">
<path d="M36.2923 25.9915C28.7646 46.4667 29.2105 71.3346 50.8622 82.7594C63.0735 89.2028 79.9347 95.9469 93.8849 91.6938C103.348 88.8087 106.492 80.3756 101.445 71.7632C93.5286 58.2542 75.7697 53.2378 61.5148 50.5268C50.0902 48.354 26.0157 43.4398 16.6366 53.7569C6.56861 64.8316 58.3612 76.0292 67.7689 68.1894C81.9655 56.3589 31.1842 31.1792 25.0212 28.6031C23.847 28.1123 7.11702 22.7183 15.5369 28.8093C25.3633 35.9177 37.1911 40.1098 47.8383 45.7847C53.5619 48.8353 63.673 52.698 60.6214 60.8357C57.5137 69.1228 49.7909 74.7082 43.7147 80.6976C35.9656 88.336 28.6253 97.2053 25.0212 107.638C22.1902 115.833 23.0146 110.514 20.0729 103.79C17.2752 97.3949 12.9335 90.1715 13.3377 82.8968C13.8276 74.0786 23.1845 70.5916 30.2444 68.1207C39.1556 65.0018 50.5005 62.9402 57.8723 56.6434C63.2818 52.0228 60.4393 45.1479 54.436 43.0356C49.6258 41.3431 38.1067 39.231 33.9556 43.448C28.5113 48.9787 34.504 59.6661 38.8351 63.5848C47.8055 71.7008 61.4234 78.0812 72.9921 81.2474C80.298 83.2469 89.4538 82.3194 84.9505 72.7253C81.8492 66.1183 62.5621 53.5702 78.9025 53.2071C80.6775 53.1676 108.381 51.296 102.544 46.3345C99.038 43.3541 86.14 52.9037 89.074 49.3584C92.5636 45.1419 95.3794 40.3841 98.6957 36.0255C99.8392 34.5226 107.561 26.8086 101.307 27.5035C91.0433 28.6439 80.1234 33.9493 70.6554 37.675C54.5869 43.9979 37.0652 50.7267 22.8906 60.767C16.6252 65.205 18.4052 68.5972 25.4335 69.0141C37.7343 69.7438 50.5868 64.381 61.9272 60.4233C76.8608 55.2116 91.8235 49.6675 106.256 43.1731C114.599 39.4185 103.695 44.0656 102.132 44.8912C95.48 48.4041 20.0975 94.928 21.7223 96.8483C25.1518 100.901 46.8762 97.4696 50.9997 97.1919C66.6235 96.1398 82.7967 94.0319 97.5961 88.6698C105.745 85.7172 99.8804 84.6605 94.847 84.4088C81.5321 83.7431 66.6103 85.1258 54.2985 90.4567C47.8311 93.257 42.8011 99.3344 52.6491 100.903C60.9654 102.228 69.9746 99.7606 77.8029 97.1919C83.059 95.4672 86.7451 94.2807 79.1774 94.0305C60.9957 93.4294 47.0141 85.2398 32.8559 74.0999C15.8855 60.7472 0.535223 42.6323 6.46507 19.3938C11.7273 -1.22838 34.3307 14.3727 45.3641 19.2563C51.4883 21.967 57.8821 22.7552 64.47 23.4486C67.1747 23.7333 58.9042 23.3804 56.3603 24.3421C47.6647 27.6294 26.8694 49.8776 34.849 60.2859C42.3091 70.0165 69.4372 56.9183 78.284 55.2689C95.7837 52.0062 69.2092 78.6114 66.3944 81.1099C57.1291 89.3342 47.6795 97.3688 37.9417 105.027C32.4867 109.317 35.0838 108.875 40.622 108.875C66.0217 108.875 91.3023 106.401 116.702 106.401" stroke="#F8DDEB" stroke-width="3" stroke-linecap="round"/>
<path d="M48.5514 62.4352L43.6016 67.3849L71.5324 95.3156C72.8992 96.6825 75.1153 96.6825 76.4821 95.3156V95.3156C77.8489 93.9488 77.8489 91.7327 76.4821 90.3659L48.5514 62.4352Z" stroke="black" stroke-width="3" stroke-linecap="round"/>
<path d="M48.5514 62.4352L43.6016 67.3849L32.6415 56.4248C31.2747 55.0579 31.2747 52.8419 32.6415 51.475V51.475C34.0083 50.1082 36.2244 50.1082 37.5912 51.475L48.5514 62.4352Z" stroke="black" stroke-width="3" stroke-linecap="round"/>
<path d="M76.2213 95.5764C83.5094 104.316 102.745 117.136 121.383 98.4977" stroke="black" stroke-width="3" stroke-linecap="round"/>
<path d="M62.895 33.4999H79.057V30.4999H62.895V33.4999ZM55.5251 40.7081H55.6868V37.7081H55.5251V40.7081ZM53.2593 43.3863V42.9739H50.2593V43.3863H53.2593ZM72.0995 46.0645H55.9375V49.0645H72.0995V46.0645ZM79.4695 38.8563H79.3078V41.8563H79.4695V38.8563ZM81.7353 36.1781V36.5905H84.7353V36.1781H81.7353ZM79.4695 41.8563C82.3777 41.8563 84.7353 39.4987 84.7353 36.5905H81.7353C81.7353 37.8419 80.7208 38.8563 79.4695 38.8563V41.8563ZM77.2036 43.9604C77.2036 42.7983 78.1457 41.8563 79.3078 41.8563V38.8563C76.4888 38.8563 74.2036 41.1415 74.2036 43.9604H77.2036ZM72.0995 49.0645C74.9184 49.0645 77.2036 46.7793 77.2036 43.9604H74.2036C74.2036 45.1225 73.2616 46.0645 72.0995 46.0645V49.0645ZM50.2593 43.3863C50.2593 46.5223 52.8015 49.0645 55.9375 49.0645V46.0645C54.4584 46.0645 53.2593 44.8655 53.2593 43.3863H50.2593ZM55.5251 37.7081C52.6169 37.7081 50.2593 40.0657 50.2593 42.9739H53.2593C53.2593 41.7225 54.2737 40.7081 55.5251 40.7081V37.7081ZM57.7909 35.604C57.7909 36.7661 56.8488 37.7081 55.6868 37.7081V40.7081C58.5057 40.7081 60.7909 38.4229 60.7909 35.604H57.7909ZM79.057 33.4999C80.5362 33.4999 81.7353 34.699 81.7353 36.1781H84.7353C84.7353 33.0421 82.193 30.4999 79.057 30.4999V33.4999ZM62.895 30.4999C60.0761 30.4999 57.7909 32.7851 57.7909 35.604H60.7909C60.7909 34.4419 61.7329 33.4999 62.895 33.4999V30.4999Z" fill="black"/>
<path d="M59.2909 1.5H49.2909V4.5H59.2909V1.5ZM66.2909 7.5H65.2909V10.5H66.2909V7.5ZM60.2909 18.5H66.2909V15.5H60.2909V18.5ZM49.2909 12.5H54.2909V9.5H49.2909V12.5ZM19.8703 18.5H35.6365V15.5H19.8703V18.5ZM9.66663 26.5H11.8703V23.5H9.66663V26.5ZM25.8448 32.5H9.66663V35.5H25.8448V32.5ZM35.6365 23.8564H34.4884V26.8564H35.6365V23.8564ZM35.6365 26.8564C38.7725 26.8564 41.3147 24.3142 41.3147 21.1782H38.3147C38.3147 22.6573 37.1156 23.8564 35.6365 23.8564V26.8564ZM31.6666 29.6782C31.6666 28.1198 32.93 26.8564 34.4884 26.8564V23.8564C31.2731 23.8564 28.6666 26.4629 28.6666 29.6782H31.6666ZM25.8448 35.5C29.0601 35.5 31.6666 32.8935 31.6666 29.6782H28.6666C28.6666 31.2366 27.4033 32.5 25.8448 32.5V35.5ZM3.66663 29.5C3.66663 32.8137 6.35292 35.5 9.66663 35.5V32.5C8.00977 32.5 6.66663 31.1569 6.66663 29.5H3.66663ZM9.66663 23.5C6.35292 23.5 3.66663 26.1863 3.66663 29.5H6.66663C6.66663 27.8431 8.00977 26.5 9.66663 26.5V23.5ZM14.3703 21C14.3703 22.3807 13.251 23.5 11.8703 23.5V26.5C14.9079 26.5 17.3703 24.0376 17.3703 21H14.3703ZM35.6365 18.5C37.1156 18.5 38.3147 19.6991 38.3147 21.1782H41.3147C41.3147 18.0422 38.7725 15.5 35.6365 15.5V18.5ZM19.8703 15.5C16.8328 15.5 14.3703 17.9624 14.3703 21H17.3703C17.3703 19.6193 18.4896 18.5 19.8703 18.5V15.5ZM49.2909 9.5C47.9102 9.5 46.7909 8.38071 46.7909 7H43.7909C43.7909 10.0376 46.2533 12.5 49.2909 12.5V9.5ZM58.7909 14C58.7909 11.5147 56.7762 9.5 54.2909 9.5V12.5C55.1193 12.5 55.7909 13.1716 55.7909 14H58.7909ZM60.2909 15.5C59.4625 15.5 58.7909 14.8284 58.7909 14H55.7909C55.7909 16.4853 57.8056 18.5 60.2909 18.5V15.5ZM68.7909 13C68.7909 14.3807 67.6716 15.5 66.2909 15.5V18.5C69.3285 18.5 71.7909 16.0376 71.7909 13H68.7909ZM66.2909 10.5C67.6716 10.5 68.7909 11.6193 68.7909 13H71.7909C71.7909 9.96243 69.3285 7.5 66.2909 7.5V10.5ZM60.7909 6C60.7909 8.48528 62.8056 10.5 65.2909 10.5V7.5C64.4625 7.5 63.7909 6.82843 63.7909 6H60.7909ZM49.2909 1.5C46.2533 1.5 43.7909 3.96243 43.7909 7H46.7909C46.7909 5.61929 47.9102 4.5 49.2909 4.5V1.5ZM59.2909 4.5C60.1193 4.5 60.7909 5.17157 60.7909 6H63.7909C63.7909 3.51472 61.7762 1.5 59.2909 1.5V4.5Z" fill="black"/>
<path d="M22.2909 78.5H32.2909V75.5H22.2909V78.5ZM27.2909 83.5H22.2909V86.5H27.2909V83.5ZM33.2909 92.5H39.2909V89.5H33.2909V92.5ZM39.2909 81.5H38.2909V84.5H39.2909V81.5ZM20.1666 95.5H15.1666V98.5H20.1666V95.5ZM15.1666 106.5H20.1666V103.5H15.1666V106.5ZM15.1666 103.5C13.7859 103.5 12.6666 102.381 12.6666 101H9.66663C9.66663 104.038 12.1291 106.5 15.1666 106.5V103.5ZM22.6666 101C22.6666 102.381 21.5473 103.5 20.1666 103.5V106.5C23.2042 106.5 25.6666 104.038 25.6666 101H22.6666ZM15.1666 95.5C12.1291 95.5 9.66663 97.9624 9.66663 101H12.6666C12.6666 99.6193 13.7859 98.5 15.1666 98.5V95.5ZM20.1666 98.5C21.5473 98.5 22.6666 99.6193 22.6666 101H25.6666C25.6666 97.9624 23.2042 95.5 20.1666 95.5V98.5ZM38.2909 81.5C37.4625 81.5 36.7909 80.8284 36.7909 80H33.7909C33.7909 82.4853 35.8056 84.5 38.2909 84.5V81.5ZM44.7909 87C44.7909 83.9624 42.3285 81.5 39.2909 81.5V84.5C40.6716 84.5 41.7909 85.6193 41.7909 87H44.7909ZM39.2909 92.5C42.3285 92.5 44.7909 90.0376 44.7909 87H41.7909C41.7909 88.3807 40.6716 89.5 39.2909 89.5V92.5ZM28.7909 88C28.7909 90.4853 30.8056 92.5 33.2909 92.5V89.5C32.4625 89.5 31.7909 88.8284 31.7909 88H28.7909ZM27.2909 86.5C28.1193 86.5 28.7909 87.1716 28.7909 88H31.7909C31.7909 85.5147 29.7762 83.5 27.2909 83.5V86.5ZM16.7909 81C16.7909 84.0376 19.2534 86.5 22.2909 86.5V83.5C20.9102 83.5 19.7909 82.3807 19.7909 81H16.7909ZM32.2909 78.5C33.1193 78.5 33.7909 79.1716 33.7909 80H36.7909C36.7909 77.5147 34.7762 75.5 32.2909 75.5V78.5ZM22.2909 75.5C19.2534 75.5 16.7909 77.9624 16.7909 81H19.7909C19.7909 79.6193 20.9102 78.5 22.2909 78.5V75.5Z" fill="black"/>
</g>
<defs>
<clipPath id="clip0">
<rect width="120" height="120" fill="white" transform="translate(0.666687)"/>
</clipPath>
</defs>
</svg>
