<svg width="121" height="120" viewBox="0 0 121 120" fill="none" xmlns="http://www.w3.org/2000/svg">
<g clip-path="url(#clip0)">
<path d="M38.8187 18.5184C34.7012 33.9047 23.8876 44.5274 16.959 58.5105C16.1864 60.0697 14.155 65.3606 17.7649 65.3606C25.7177 65.3606 34.4627 52.9763 38.8187 47.8325C45.5901 39.8365 52.3392 31.711 58.6636 23.3537C58.8423 23.1176 62.4307 16.7367 61.3835 19.8784C59.2709 26.216 58.0553 32.6559 55.4401 38.8671C50.8475 49.7745 44.96 60.2339 38.9194 70.3974C35.9785 75.3456 37.3974 70.0163 38.0632 67.7279C40.0033 61.0586 43.465 55.0368 47.3812 49.3436C50.6071 44.6538 54.1757 38.2294 58.5125 34.4347C59.6995 33.3961 58.1471 37.6065 57.5555 39.0685C54.925 45.5697 51.8439 51.8995 48.59 58.1076C42.5294 69.6706 35.9549 81.1882 27.8385 91.4511C22.3659 98.371 24.1862 95.073 27.4355 89.5371C33.9671 78.4094 41.8777 68.6186 50.8062 59.3164C56.5489 53.3334 62.5182 47.5157 68.8379 42.141C70.6857 40.5695 76.3091 34.8634 79.4152 34.6362C80.4001 34.5641 78.9695 36.5834 78.5086 37.4568C76.0014 42.2072 73.5632 46.9843 71.1045 51.7612C63.9567 65.6484 56.1645 79.1902 48.993 93.0629C47.5512 95.8519 43.4895 104.527 48.59 96.9412C57.2519 84.0595 67.4316 72.561 78.9115 62.0867C84.5589 56.9339 93.54 47.0808 101.476 45.2134C102.278 45.0249 101.415 46.937 100.973 47.6311C97.0006 53.8588 92.1488 59.6352 87.5748 65.4109C77.9332 77.5855 68.027 89.6089 58.9658 102.23C57.4857 104.291 53.0094 108.849 55.5408 109.03C57.225 109.15 61.6171 103.32 62.1894 102.734C71.8445 92.8355 82.3014 83.713 93.216 75.2327C94.7844 74.014 109.453 61.2073 102.786 71.0018C96.409 80.3703 81.3975 110.536 88.8843 102.028C92.3012 98.1455 95.3494 94.0818 99.3609 90.746C99.7264 90.442 105.976 85.6417 105.556 87.6735C104.442 93.0595 101.842 98.1848 100.469 103.539C100.383 103.875 99.3133 107.443 100.267 103.539C101.256 99.4971 102.87 95.6717 104.498 91.8541C108.581 82.2799 113.271 72.9191 116.99 63.1947C118.822 58.4018 122.213 50.5667 116.687 46.8252C110.559 42.6754 101.453 43.1592 94.4752 43.0476C84.1763 42.8828 73.8331 42.8078 63.5493 43.4505C60.5461 43.6382 51.5244 43.9038 54.5335 43.9038C61.5936 43.9038 68.6359 43.7828 75.688 43.4002C84.9891 42.8955 94.4199 42.7495 103.693 41.8891C104.152 41.8465 104.64 41.8435 105.052 41.6373C105.842 41.2423 103.316 41.2638 102.433 41.2343C96.988 41.0528 91.5098 41.1658 86.0637 41.184C69.2995 41.2399 19.1213 41.0707 35.7966 42.7958C47.6002 44.0168 59.2038 44.686 70.9534 46.7748C72.8743 47.1163 107.688 52.4899 103.844 58.7624C100.476 64.2563 85.9998 64.0575 80.9262 64.3532C66.4396 65.1975 51.642 65.1266 37.1565 64.2525C30.713 63.8636 27.3555 62.9429 35.7966 62.9429C54.011 62.9429 72.5069 63.1574 90.5969 65.4613C98.4852 66.4659 95.7034 68.2283 89.6399 69.2389C76.2056 71.4779 62.2626 71.3461 48.6908 72.0091C47.8791 72.0488 25.1186 72.6715 25.1186 73.3691C25.1186 74.2628 58.0501 73.8224 59.671 73.8224C66.8904 73.8224 74.1098 73.8224 81.3292 73.8224C84.2169 73.8224 87.1047 73.8116 89.9924 73.8224C92.1089 73.8303 97.4277 72.2089 96.3388 74.0238C95.188 75.9418 91.9147 74.6972 89.6902 74.9305C81.6601 75.7723 73.6256 76.4787 65.6144 77.4992C50.7476 79.3931 35.6724 81.0618 20.9884 84.0974C11.5921 86.0399 33.3318 86.2692 34.89 86.3136C50.7557 86.7653 66.694 85.9523 82.538 87.0188C90.5109 87.5554 84.9063 90.606 80.8255 92.4585C71.6242 96.6354 61.1076 98.4643 51.3603 100.92C50.0525 101.25 33.8387 105.312 37.0054 105.504C45.6361 106.027 71.5914 105.554 62.9449 105.554C56.1495 105.554 47.4795 105.616 41.5385 109.181" stroke="#E4D8FF" stroke-width="3" stroke-linecap="round"/>
<circle cx="60.8333" cy="60.5" r="12.5" stroke="black" stroke-width="3" stroke-linecap="round" stroke-linejoin="round"/>
<path d="M71.8333 54L86.8333 43" stroke="black" stroke-width="3" stroke-linecap="round" stroke-linejoin="round"/>
<circle cx="92.8333" cy="40" r="6" stroke="black" stroke-width="3" stroke-linecap="round" stroke-linejoin="round"/>
<circle cx="100.833" cy="87.5" r="8.5" stroke="black" stroke-width="3" stroke-linecap="round" stroke-linejoin="round"/>
<circle cx="54.3333" cy="19" r="6" stroke="black" stroke-width="3" stroke-linecap="round" stroke-linejoin="round"/>
<path d="M55.8333 25L59.3333 48" stroke="black" stroke-width="3" stroke-linecap="round" stroke-linejoin="round"/>
<circle cx="27.8333" cy="95.5" r="7.5" stroke="black" stroke-width="3" stroke-linecap="round" stroke-linejoin="round"/>
<path d="M33.3333 90L52.3333 70" stroke="black" stroke-width="3" stroke-linecap="round" stroke-linejoin="round"/>
<path d="M71.8333 67L93.8333 82.5" stroke="black" stroke-width="3" stroke-linecap="round" stroke-linejoin="round"/>
</g>
<defs>
<clipPath id="clip0">
<rect width="120" height="120" fill="white" transform="translate(0.333313)"/>
</clipPath>
</defs>
</svg>
