<svg width="121" height="120" viewBox="0 0 121 120" fill="none" xmlns="http://www.w3.org/2000/svg">
<path d="M49.4821 25.8075C43.7215 35.3047 35.7488 43.0416 28.3534 51.269C27.4483 52.2758 9.99412 71.179 14.6598 72.8257C23.0933 75.8022 34.7968 60.7803 39.4794 55.9762C45.7137 49.5799 51.7492 42.9873 57.7197 36.3451C60.0241 33.7815 66.0645 25.5127 64.6199 28.6425C60.6959 37.1446 53.2827 44.8105 48.3053 52.7667C46.8895 55.03 31.0895 78.7713 36.1095 79.512C40.5635 80.1691 45.2582 78.0867 49.1612 76.3025C58.1269 72.2039 66.7362 67.2574 74.8366 61.6461C76.5317 60.4719 96.6928 45.4752 87.8883 54.3714C77.2287 65.1421 66.5288 75.9871 55.6335 86.5192C52.3361 89.7068 40.7154 97.7885 51.4078 96.9499C65.641 95.8336 79.2495 90.64 93.3443 88.5519C93.461 88.5346 105.678 85.7521 101.421 89.6217C97.8708 92.8495 93.766 95.2917 90.6698 99.036C90.2719 99.5172 85.2205 106.237 86.9255 107.167C88.5299 108.042 94.3448 102.493 95.2165 101.764C97.2741 100.043 102.214 96.7992 102.973 93.9544C103.582 91.6675 98.2787 93.2055 95.9119 93.2055C73.1377 93.2055 49.3005 93.3602 27.1766 87.2681C20.3991 85.4018 12.9144 82.4655 11.6108 74.6443C10.239 66.4133 15.8062 59.1345 21.6671 54.104C37.9606 40.1187 58.569 35.3029 77.8321 27.1983C82.2821 25.326 84.66 23.9204 78.153 23.8818C69.7395 23.8321 61.2026 24.3851 52.9055 25.8075C50.1126 26.2863 25.9258 31.6319 37.3933 33.5101C49.1441 35.4348 73.8053 33.0683 80.7206 45.2781C86.64 55.7294 67.1665 65.8117 61.1965 69.9907C55.3922 74.0537 39.3834 81.8442 54.1358 83.9517C60.1998 84.818 66.3884 84.5571 72.483 85.1285C75.4443 85.4061 83.5023 85.2927 85.9626 87.589C88.3185 89.7879 79.1441 92.9942 78.9554 93.0451C70.1478 95.4201 60.1663 95.9754 51.0868 95.8266C43.6773 95.7051 32.9811 92.8489 38.2491 83.2563C43.465 73.7588 52.5183 65.5415 60.1802 58.1158C68.9231 49.6424 78.4151 42.2368 88.1023 34.9009C90.8868 32.7922 99.3927 26.925 96.1258 28.1611C90.2286 30.3925 84.252 32.4235 78.367 34.6869C74.0558 36.3451 49.0764 46.8395 63.9246 52.3388C72.6746 55.5795 94.8675 54.5456 98.1585 65.7114C101.14 75.8277 89.8117 87.7477 83.716 94.1684C79.6315 98.4708 87.0325 93.5773 87.0325 92.2427C87.0325 89.6621 79.8278 90.3171 78.367 90.3171" stroke="#FFD0CD" stroke-width="3" stroke-linecap="round"/>
<g clip-path="url(#clip0)">
<path d="M20.1667 26.5455C20.1667 21.0227 24.6438 16.5455 30.1667 16.5455H52.9268C58.4496 16.5455 62.9267 21.0227 62.9267 26.5455V49.9266C62.9267 51.2261 62.4105 52.4725 61.4916 53.3914L44.3181 70.5648C43.3992 71.4838 42.1529 72 40.8533 72H30.1667C24.6438 72 20.1667 67.5229 20.1667 62V26.5455Z" stroke="black" stroke-width="3"/>
<path d="M62.9268 50.6199H48.4067C44.618 50.6199 41.5467 53.6912 41.5467 57.4799V71.9999" stroke="black" stroke-width="3"/>
<path d="M29.0546 25.8707H54.176" stroke="black" stroke-width="3" stroke-linecap="round"/>
<path d="M29.0546 32.1854H54.176" stroke="black" stroke-width="3" stroke-linecap="round"/>
<path d="M29.0546 38.2256H43.6058" stroke="black" stroke-width="3" stroke-linecap="round"/>
<path d="M53.6706 102.567C52.2987 100.214 51.2294 97.7294 50.4623 95.1705M63.5881 98.3944C59.6938 93.2638 57.4336 87.278 56.8025 81.136M72.0918 94.7514C65.3624 87.2188 64.7339 76.1268 70.1621 67.7765" stroke="black" stroke-width="3" stroke-linecap="round"/>
<path d="M46.3733 103.996L63.1919 64.4822C63.8501 62.9357 65.8634 62.5454 67.0518 63.7338L88.1911 84.8731C89.3795 86.0615 88.9892 88.0748 87.4428 88.733L47.9291 105.552C46.9466 105.97 45.9551 104.978 46.3733 103.996Z" stroke="black" stroke-width="3" stroke-linecap="round"/>
<path d="M87.8779 73.3708C94.3148 66.9339 103.29 65.4728 107.925 70.1074" stroke="black" stroke-width="3" stroke-linecap="round"/>
<path d="M78.5539 64.0468C84.9908 57.6099 86.4519 48.6346 81.8173 44.0001" stroke="black" stroke-width="3" stroke-linecap="round"/>
<path d="M83.9151 69.4082V67.2124C83.9151 66.1078 84.8106 65.2124 85.9151 65.2124H86.111C87.2155 65.2124 88.111 64.317 88.111 63.2124V63.0166C88.111 61.912 89.0064 61.0166 90.111 61.0166H90.3068C91.4114 61.0166 92.3068 60.1211 92.3068 59.0166V58.8207C92.3068 57.7162 93.2022 56.8207 94.3068 56.8207H94.5026C95.6072 56.8207 96.5026 55.9253 96.5026 54.8207V54.6249C96.5026 53.5203 97.3981 52.6249 98.5026 52.6249H100.698" stroke="black" stroke-width="3" stroke-linecap="round"/>
<circle cx="90.6751" cy="51.4593" r="0.988968" transform="rotate(45 90.6751 51.4593)" fill="black"/>
<circle r="0.988968" transform="matrix(-0.707107 -0.707107 -0.707107 0.707107 99.999 60.7834)" fill="black"/>
<circle cx="75.2904" cy="53.7903" r="0.988968" transform="rotate(45 75.2904 53.7903)" fill="black"/>
<circle r="0.988968" transform="matrix(-0.707107 -0.707107 -0.707107 0.707107 97.668 76.168)" fill="black"/>
</g>
<defs>
<clipPath id="clip0">
<rect width="98" height="98" fill="white" transform="translate(12.1667 11)"/>
</clipPath>
</defs>
</svg>
