<svg width="119" height="25" viewBox="0 0 119 25" fill="none" xmlns="http://www.w3.org/2000/svg">
<path fill-rule="evenodd" clip-rule="evenodd" d="M2.99079 12.4999L18.0232 3.85948V0.417969L-0.00109863 10.7425V14.184L18.0232 24.5818L26.9989 19.3829V15.9414L18.0232 21.1403L2.99079 12.4999ZM24.007 10.7425L15.0313 15.9414L18.0232 17.6988L24.007 14.2572V10.7425ZM21.0151 5.61685L9.04755 12.4999L12.0394 14.2572L21.0151 9.05836V5.61685Z" fill="#FF8A00"/>
<path d="M46.1061 15.3999V17.6082H36.7684V5.64062H45.8906V7.84892H39.5697V10.4134H45.1723V12.5504H39.5697V15.3286H46.1061V15.3999Z" fill="black"/>
<path d="M61.5474 5.64062L56.3039 17.6082H53.5744L48.3309 5.64062H51.3477L55.011 14.1889L58.7461 5.64062H61.5474Z" fill="black"/>
<path d="M73.6099 15.3999V17.6082H64.2722V5.64062H73.3944V7.84892H67.0735V10.4134H72.6761V12.5504H67.0735V15.3286H73.6099V15.3999Z" fill="black"/>
<path d="M85.247 17.6082L82.9485 14.2601H82.8049H80.3627V17.6082H77.5614V5.64062H82.8049C83.8823 5.64062 84.816 5.7831 85.6062 6.13927C86.3963 6.49545 86.9709 6.9941 87.4019 7.63521C87.8328 8.27633 88.0483 9.05992 88.0483 9.91474C88.0483 10.7696 87.8328 11.5532 87.4019 12.1943C86.9709 12.8354 86.3244 13.334 85.5343 13.6902L88.2638 17.5369H85.247V17.6082ZM84.5287 8.4188C84.0978 8.06263 83.4513 7.84892 82.5894 7.84892H80.2909V12.0518H82.5894C83.4513 12.0518 84.0978 11.8381 84.5287 11.4819C84.9597 11.1257 85.1752 10.6271 85.1752 9.91474C85.1752 9.34486 84.9597 8.77498 84.5287 8.4188Z" fill="black"/>
<path d="M99.8914 15.0437H94.2889L93.2115 17.6082H90.3384L95.7254 5.64062H98.4549L103.842 17.6082H100.897L99.8914 15.0437ZM98.9577 12.9779L97.0183 8.4188L95.079 12.9779H98.9577Z" fill="black"/>
<path d="M106.862 5.64062H112.321C113.614 5.64062 114.763 5.85434 115.769 6.353C116.774 6.85166 117.565 7.56404 118.139 8.41889C118.714 9.34498 119.001 10.3423 119.001 11.5533C119.001 12.7644 118.714 13.8329 118.139 14.6878C117.565 15.6139 116.774 16.255 115.769 16.7537C114.763 17.2524 113.614 17.4661 112.321 17.4661H106.862V5.64062ZM112.177 15.3289C113.399 15.3289 114.332 14.9727 115.051 14.3316C115.769 13.6905 116.128 12.7644 116.128 11.6246C116.128 10.4848 115.769 9.55869 115.051 8.91755C114.332 8.27642 113.399 7.92023 112.177 7.92023H109.592V15.3289H112.177Z" fill="black"/>
</svg>
