<svg width="148" height="33" viewBox="0 0 148 33" fill="none" xmlns="http://www.w3.org/2000/svg">
<path d="M10.8771 22.7794C7.66938 22.7794 4.21766 20.4602 1.9988 16.7925C-0.297111 12.9836 -0.640999 8.79278 1.10127 5.84494C4.52017 0.0775338 10.1636 -1.04002 13.7381 0.837303C16.3622 2.21715 18.5639 5.68386 16.131 10.9295C15.3748 12.5574 15.4832 14.4419 15.5888 16.2636C15.7044 18.2721 15.8142 20.1694 14.6641 21.4466C13.9336 22.2605 12.7992 22.6938 11.1967 22.7722C11.0911 22.7765 10.987 22.7794 10.8771 22.7794ZM10.2093 1.47733C7.55666 1.47733 4.50162 3.01683 2.37836 6.60898C0.627533 9.55968 1.68916 13.407 3.26876 16.0213C5.27929 19.3583 8.36715 21.428 11.1297 21.2926C12.3112 21.2399 13.1074 20.9548 13.5554 20.4573C14.2931 19.6377 14.2047 18.1139 14.1034 16.3491C13.9921 14.439 13.8679 12.2723 14.7797 10.3066C16.7774 6.01314 15.1893 3.27769 13.0417 2.14872C12.1659 1.69927 11.1939 1.46888 10.2093 1.47733Z" fill="#FF57C6"/>
<path d="M16.0432 16.5361C14.6366 16.5524 13.2447 16.2498 11.9722 15.6509C10.0744 14.74 7.68285 12.6873 7.0707 8.09452C6.83668 6.33978 7.21339 4.90006 8.17085 3.81814C10.3883 1.31504 15.2213 1.37491 18.419 1.41197C18.7886 1.41197 19.1325 1.42195 19.4549 1.42195C20.0514 1.42195 20.6664 1.40484 21.3185 1.38773C25.1141 1.28368 29.4234 1.17392 30.8418 4.49238C32.2787 7.85789 30.7148 10.0175 23.8627 14.1199C21.1915 15.7207 18.4932 16.5361 16.0432 16.5361ZM17.0863 2.88019C14.2795 2.88019 10.7992 3.08118 9.281 4.79315C8.60607 5.56005 8.36349 6.57213 8.54043 7.89923C8.95566 11.0153 10.3655 13.2361 12.6157 14.3138C15.4039 15.6566 19.3222 15.1063 23.1007 12.8441C30.3038 8.53071 30.3152 7.02827 29.4776 5.06827C28.4545 2.67492 24.8473 2.77043 21.3585 2.86308C20.7263 2.88019 20.0742 2.89729 19.4564 2.89729C19.131 2.89729 18.7772 2.89729 18.4019 2.88874C17.9881 2.88874 17.5514 2.88304 17.0863 2.88304V2.88019Z" fill="#10E6D9"/>
<path d="M22.6408 25.4722C20.6517 25.4722 18.8338 24.9775 17.3712 24.0039C15.3193 22.6383 14.1164 20.4289 13.8938 17.6165C13.6926 15.0763 14.8056 12.7129 17.033 10.9624C20.4962 8.23408 26.0611 7.4515 30.8827 9.01666C33.631 9.909 35.1463 11.7992 35.1492 14.3407C35.1492 16.2893 34.2246 18.5715 32.6079 20.6028C31.0268 22.5885 28.9906 24.0966 27.02 24.7366C25.6083 25.2111 24.1303 25.4593 22.6408 25.4722ZM25.7372 9.69375C22.7963 9.69375 19.9625 10.5362 17.9448 12.1256C16.6606 13.1405 15.1652 14.8967 15.3764 17.4996C15.5619 19.843 16.5379 21.6662 18.1974 22.7738C20.3049 24.1778 23.3514 24.3817 26.5577 23.334C30.1478 22.1622 33.6681 17.7091 33.6652 14.345C33.6652 12.4435 32.5722 11.1263 30.4232 10.4279C28.9091 9.94047 27.328 9.69277 25.7372 9.69375Z" fill="#ED534B"/>
<path d="M23.7059 31.4663C23.3769 31.466 23.0483 31.4417 22.7228 31.3936C21.1999 31.142 19.7793 30.4655 18.6247 29.4421C18.1424 29.0373 17.583 28.6225 16.9923 28.1835C14.0714 26.0125 10.4356 23.3127 10.7866 18.278C11.0377 14.6716 12.9184 11.6596 15.8179 10.2213C18.5776 8.85141 21.8709 9.108 24.6263 10.9069C27.8911 13.038 30.2926 17.2317 30.7449 21.5893C31.0788 24.8066 30.2698 27.5762 28.4619 29.3737C26.8166 31.023 25.0872 31.4663 23.7059 31.4663ZM19.5679 10.8185C18.495 10.8183 17.4368 11.0677 16.4772 11.547C14.0186 12.7671 12.4818 15.2531 12.2663 18.3806C11.9709 22.6071 15.1087 24.9377 17.877 26.9946C18.4905 27.4508 19.0699 27.8813 19.5893 28.3175L19.6121 28.3374C21.0219 29.6203 24.4636 31.2767 27.4174 28.326C28.8999 26.8464 29.5577 24.5072 29.2723 21.7418C28.87 17.8703 26.6782 14.0144 23.8187 12.1471C22.5612 11.2985 21.0824 10.8367 19.565 10.8185H19.5679Z" fill="#9F72FF"/>
<path d="M11.6603 32.149C10.0287 32.1714 8.42204 31.7475 7.0143 30.9231C4.65703 29.519 3.05745 26.9318 2.73354 23.9897C2.45671 21.4638 2.07858 18.0028 6.58622 15.6051C10.1236 13.7235 15.7185 14.3222 19.6839 15.7477C20.9967 16.2209 24.1345 17.5281 24.9278 19.4539C25.2529 20.2435 25.4155 21.0904 25.4059 21.9441C25.3964 22.7978 25.2149 23.6409 24.8722 24.423C23.7678 27.0544 21.001 29.3351 16.87 31.0172C14.8695 31.8411 13.1358 32.149 11.6603 32.149ZM12.341 15.8988C10.2106 15.8988 8.44692 16.3022 7.28827 16.9194C3.91645 18.7055 3.88078 20.8123 4.2104 23.83C4.48151 26.3075 5.81283 28.4841 7.7777 29.6516C10.0479 31.0029 13.0017 31.0029 16.3192 29.6516C21.0666 27.7187 22.8517 25.4322 23.5138 23.8557C23.7795 23.2529 23.921 22.6029 23.9298 21.9444C23.9386 21.2858 23.8146 20.6323 23.5651 20.0226C23.177 19.079 21.5004 17.9757 19.1902 17.1446C16.9961 16.3372 14.6791 15.9134 12.341 15.8917V15.8988Z" fill="#FFA800"/>
<path d="M62.9875 11.5911V27.5291H58.5641V25.6931C57.4168 27.0739 55.7559 27.7648 53.5813 27.7658C52.1535 27.7846 50.7447 27.4381 49.4888 26.7594C48.286 26.091 47.2986 25.0942 46.6421 23.8857C45.9496 22.6417 45.6038 21.2001 45.6048 19.5608C45.6057 17.9216 45.9515 16.4795 46.6421 15.2346C47.299 14.0267 48.2864 13.0305 49.4888 12.3623C50.7446 11.6831 52.1534 11.3362 53.5813 11.3545C55.617 11.3545 57.2085 11.9964 58.3557 13.2803V11.5911H62.9875ZM54.3875 23.974C55.5547 23.974 56.5236 23.5792 57.2941 22.7895C58.0646 21.9798 58.4504 20.9036 58.4513 19.5608C58.4523 18.218 58.0665 17.1513 57.2941 16.3607C56.9231 15.9645 56.4722 15.6514 55.9712 15.442C55.4701 15.2327 54.9304 15.1319 54.3875 15.1462C53.2022 15.1462 52.2238 15.551 51.4523 16.3607C50.6818 17.1504 50.296 18.2171 50.2951 19.5608C50.2941 20.9046 50.6798 21.9808 51.4523 22.7895C52.2228 23.5792 53.2012 23.974 54.3875 23.974ZM71.7731 11.9475H75.8655V15.5026H71.8972V27.5291H67.2711V11.2362C67.2711 9.41917 67.8048 7.97756 68.8721 6.91132C69.9594 5.84507 71.4815 5.31148 73.4383 5.31053C74.0983 5.30668 74.7562 5.38667 75.396 5.54858C75.9533 5.65676 76.4855 5.86751 76.9656 6.17008L75.7485 9.51848C75.2011 9.13827 74.5472 8.94115 73.8806 8.95542C72.4756 8.95542 71.7731 9.72422 71.7731 11.2618V11.9475ZM82.6904 11.9475H86.7828V15.5026H82.8146V27.5291H78.1942V11.2362C78.1942 9.41917 78.7279 7.97756 79.7952 6.91132C80.8825 5.84507 82.4046 5.31148 84.3613 5.31053C85.0214 5.30685 85.6792 5.38684 86.3191 5.54858C86.8763 5.65685 87.4085 5.8676 87.8887 6.17008L86.6701 9.51848C86.1226 9.13854 85.4688 8.94144 84.8023 8.95542C83.3982 8.95542 82.6961 9.72564 82.6961 11.2661L82.6904 11.9475ZM98.7975 11.3545C100.775 11.3545 102.367 11.947 103.572 13.132C104.798 14.317 105.411 16.0751 105.41 18.4062V27.5291H100.789V19.1189C100.789 17.855 100.513 16.9171 99.959 16.3051C99.4063 15.6722 98.6058 15.3562 97.5575 15.3572C96.3912 15.3572 95.4623 15.7225 94.7707 16.4533C94.0791 17.1632 93.7329 18.2295 93.7319 19.6521V27.532H89.1058V5.54858H93.7319V13.2575C94.3617 12.6352 95.1213 12.1596 95.9565 11.8648C96.8655 11.52 97.8308 11.3469 98.8032 11.3545H98.7975ZM125.678 11.5911V27.5291H121.294V25.6333C120.687 26.3173 119.938 26.8611 119.1 27.2269C118.225 27.5875 117.287 27.7688 116.341 27.7601C114.249 27.7601 112.588 27.158 111.36 25.954C110.132 24.75 109.519 22.9624 109.521 20.5914V11.5911H114.153V19.9158C114.153 22.4816 115.23 23.7645 117.385 23.7645C118.492 23.7645 119.382 23.4091 120.054 22.6983C120.726 21.9675 121.062 20.8908 121.062 19.4682V11.5911H125.678ZM139.393 11.3545C140.806 11.3361 142.198 11.6938 143.426 12.3908C144.642 13.0522 145.64 14.05 146.303 15.2645C146.995 16.4894 147.341 17.9216 147.34 19.5608C147.339 21.2001 146.993 22.6417 146.303 23.8857C145.629 25.0916 144.633 26.0866 143.426 26.7594C142.192 27.4381 140.802 27.7849 139.393 27.7658C137.199 27.7658 135.528 27.0749 134.382 25.6931V27.5291H129.959V5.54858H134.585V13.2803C135.757 11.9964 137.361 11.3545 139.399 11.3545H139.393ZM138.593 23.974C139.778 23.974 140.747 23.5792 141.498 22.7895C142.271 21.9798 142.656 20.9036 142.655 19.5608C142.654 18.218 142.269 17.1513 141.498 16.3607C140.748 15.551 139.779 15.1462 138.593 15.1462C137.407 15.1462 136.428 15.551 135.656 16.3607C134.905 17.1504 134.529 18.2171 134.53 19.5608C134.531 20.9046 134.907 21.9808 135.656 22.7895C136.433 23.5792 137.413 23.974 138.599 23.974H138.593Z" fill="black"/>
</svg>
