<svg width="139" height="112" viewBox="0 0 139 112" fill="none" xmlns="http://www.w3.org/2000/svg">
<circle cx="63" cy="60" r="50" stroke="#FFA800" stroke-width="3"/>
<g clip-path="url(#clip0)">
<circle cx="73" cy="50" r="50" fill="#F3F3F3"/>
<path d="M61.171 78.0547L71.7221 88.4269L82.2731 78.0547" stroke="white" stroke-width="3.73368"/>
<path d="M58.4839 18.9492C61.1496 14.7719 65.838 12 71.1767 12C73.2421 12 75.2102 12.4149 77.0015 13.1655C79.4275 14.1822 81.9526 15.0964 84.4672 15.8686C90.6017 17.7526 95.0596 23.4425 95.0596 30.1692C95.0596 33.4214 94.0175 36.4313 92.2477 38.8859L90.9653 40.1141M71.2921 25.6476C70.8257 24.4848 70.1785 23.4139 69.3853 22.4697C67.2323 19.9069 64.0036 18.2779 60.3946 18.2779C56.9864 18.2779 53.9175 19.7306 51.7733 22.0505C49.8393 24.143 48.6576 26.9409 48.6576 30.0149C48.6576 33.3715 50.0666 36.3989 52.3254 38.5381L53.7072 39.5682" stroke="white" stroke-width="3.73368"/>
<path d="M91.2821 50.9982C91.2821 61.2834 82.9001 69.6371 72.541 69.6371C62.1818 69.6371 53.7999 61.2834 53.7999 50.9982V38.0536L57.6086 34.2507C57.7442 34.1152 58.0801 34.0261 58.4051 34.2711C62.5869 37.4225 67.7818 39.2907 73.4056 39.2907C78.6021 39.2907 83.4335 37.6955 87.4374 34.9658C87.7585 34.7469 88.0754 34.8362 88.2068 34.968L91.2821 38.0513V50.9982Z" stroke="white" stroke-width="3.73368"/>
<path d="M52.6154 44.7546H48.1117C45.6997 44.7546 43.7444 46.7099 43.7444 49.1219C43.7444 51.5338 45.6997 53.4891 48.1117 53.4891H53.2978" stroke="white" stroke-width="3.73368"/>
<path d="M91.3747 44.7542H95.8784C98.2904 44.7542 100.246 46.7094 100.246 49.1214C100.246 51.5334 98.2904 53.4886 95.8784 53.4886H90.6923" stroke="white" stroke-width="3.73368"/>
<path d="M63.67 67.4092V78.0543L63.397 78.0925L30.9417 86.6142C26.2624 87.8429 23 92.0724 23 96.9104V122H120.717V96.9104C120.717 92.0724 117.455 87.8429 112.775 86.6142L80.3201 78.0925L79.7742 78.0543V67.4092" stroke="white" stroke-width="3.73368"/>
<path fill-rule="evenodd" clip-rule="evenodd" d="M50.4023 20.7833C52.3314 18.6961 54.9106 17.2119 57.8216 16.6543C60.9106 12.6883 65.7452 10.1331 71.1767 10.1331C73.4941 10.1331 75.7072 10.5989 77.723 11.4437C80.0923 12.4365 82.5595 13.3298 85.0152 14.084C91.907 16.2005 96.9264 22.5951 96.9264 30.1691C96.9264 33.8267 95.753 37.2162 93.762 39.9776L93.6622 40.116L93.1489 40.6076V42.8872H95.8784C99.3214 42.8872 102.112 45.6783 102.112 49.1213C102.112 52.5643 99.3214 55.3554 95.8784 55.3554H92.6827C91.3388 61.5345 87.1961 66.6764 81.641 69.4013V76.5092L113.25 84.8086C118.749 86.2527 122.584 91.224 122.584 96.9104V123.867H21.1331V96.9104C21.1331 91.224 24.9676 86.2527 30.4676 84.8086L61.8031 76.5808V68.5036C57.078 65.6278 53.6076 60.911 52.3994 55.3559H48.1117C44.6687 55.3559 41.8776 52.5648 41.8776 49.1218C41.8776 45.6788 44.6687 42.8877 48.1117 42.8877H51.933V40.574L51.1215 39.9691L51.0417 39.8935C48.4261 37.4164 46.7907 33.9051 46.7907 30.0148C46.7907 26.4529 48.1621 23.2071 50.4023 20.7833ZM65.5368 70.289V79.6786L65.4924 79.6848L71.722 85.8088L77.9073 79.7283V70.8016C76.1963 71.2595 74.3973 71.5037 72.541 71.5037C70.0819 71.5037 67.7234 71.0751 65.5368 70.289ZM82.383 80.5642L71.722 91.0445L61.1186 80.6208L31.4158 88.4199C27.5571 89.4331 24.8668 92.9209 24.8668 96.9104V120.133H118.85V96.9104C118.85 92.9209 116.16 89.4331 112.301 88.4199L82.383 80.5642ZM93.1489 50.9979V46.6209H95.8784C97.2593 46.6209 98.3788 47.7404 98.3788 49.1213C98.3788 50.5022 97.2593 51.6217 95.8784 51.6217H93.1395C93.1458 51.4145 93.1489 51.2066 93.1489 50.9979ZM51.933 46.6214H48.1117C46.7307 46.6214 45.6113 47.7408 45.6113 49.1218C45.6113 50.5027 46.7307 51.6222 48.1117 51.6222H51.9424C51.9362 51.4149 51.933 51.2068 51.933 50.9979V46.6214ZM93.1927 30.1691C93.1927 32.2515 92.7054 34.218 91.8376 35.9646L89.5286 33.6494C88.6929 32.8114 87.3637 32.7564 86.3858 33.4231C82.6812 35.9487 78.2143 37.4237 73.4056 37.4237C68.2022 37.4237 63.3989 35.6966 59.5287 32.78C58.5484 32.0413 57.1581 32.0621 56.2895 32.9294L52.8429 36.3708C51.3947 34.6525 50.5244 32.4364 50.5244 30.0148C50.5244 27.4287 51.5165 25.0786 53.1442 23.3175C54.6764 21.6598 56.7649 20.5318 59.1088 20.2274C59.5288 20.1729 59.9579 20.1447 60.3946 20.1447C63.429 20.1447 66.1424 21.5118 67.9559 23.6704C68.6237 24.4653 69.1677 25.3659 69.5595 26.3425L73.0248 24.9525C72.4836 23.6034 71.7332 22.3622 70.8146 21.2688C68.8614 18.9438 66.1399 17.2797 63.0404 16.6683C65.2798 14.913 68.1049 13.8667 71.1767 13.8667C72.9901 13.8667 74.7132 14.2307 76.28 14.8872C78.7628 15.9276 81.3458 16.8628 83.9191 17.6531C89.2964 19.3046 93.1927 24.2898 93.1927 30.1691ZM55.6667 50.9979C55.6667 60.2434 63.204 67.77 72.541 67.77C81.8779 67.77 89.4152 60.2434 89.4152 50.9979V38.8229L87.6527 37.0557C83.5197 39.6542 78.6329 41.1573 73.4056 41.1573C67.7342 41.1573 62.4658 39.3882 58.1254 36.3725L55.6667 38.8275V50.9979Z" fill="url(#paint0_linear)"/>
<path d="M71.748 39.048C71.22 39.048 70.776 39.144 70.416 39.336C70.056 39.528 69.78 39.756 69.588 40.02C69.42 40.284 69.288 40.68 69.192 41.208C69.096 41.736 69.036 42.18 69.012 42.54C69.012 42.9 69.012 43.428 69.012 44.124H64.08C64.08 40.836 64.74 38.424 66.06 36.888C67.38 35.328 69.216 34.548 71.568 34.548C73.344 34.548 74.784 34.848 75.888 35.448C77.016 36.024 77.844 36.912 78.372 38.112C78.924 39.312 79.2 40.872 79.2 42.792C79.2 42.912 78.912 43.356 78.336 44.124C77.76 44.868 77.124 45.696 76.428 46.608C75.756 47.52 75.132 48.576 74.556 49.776C73.98 50.976 73.692 52.032 73.692 52.944H69.588C69.588 52.104 69.708 51.24 69.948 50.352C70.188 49.464 70.476 48.66 70.812 47.94C71.148 47.22 71.52 46.524 71.928 45.852C72.336 45.156 72.708 44.58 73.044 44.124C73.404 43.644 73.692 43.248 73.908 42.936C74.148 42.6 74.268 42.408 74.268 42.36C74.268 42 74.268 41.736 74.268 41.568C74.268 41.376 74.244 41.148 74.196 40.884C74.172 40.596 74.124 40.38 74.052 40.236C74.004 40.092 73.92 39.936 73.8 39.768C73.68 39.576 73.524 39.444 73.332 39.372C73.164 39.276 72.948 39.204 72.684 39.156C72.42 39.084 72.108 39.048 71.748 39.048ZM74.088 60H69.192V56.04H74.088V60Z" fill="black"/>
</g>
<path d="M95 71.5L105.5 61L116 71.5L126.5 61L137 71.5" stroke="#FFE8BC" stroke-width="3" stroke-linecap="round"/>
<path d="M2 39.5L12.5 29L23 39.5L33.5 29L44 39.5" stroke="#FFE8BC" stroke-width="3" stroke-linecap="round"/>
<defs>
<linearGradient id="paint0_linear" x1="-9.64407" y1="45.4925" x2="168.608" y2="72.9099" gradientUnits="userSpaceOnUse">
<stop stop-color="#FFA800"/>
<stop offset="0.505208" stop-color="#FF57C6"/>
<stop offset="1" stop-color="#10E6D9"/>
</linearGradient>
<clipPath id="clip0">
<rect x="23" width="100" height="100" rx="50" fill="white"/>
</clipPath>
</defs>
</svg>
