<svg width="122" height="104" viewBox="0 0 122 104" fill="none" xmlns="http://www.w3.org/2000/svg">
<circle cx="52" cy="52" r="50" stroke="#9F72FF" stroke-width="3"/>
<g clip-path="url(#clip0)">
<circle cx="73.8668" cy="52" r="50" fill="#F3F3F3"/>
<path d="M62.0378 80.0547L72.5889 90.4269L83.1399 80.0547" stroke="white" stroke-width="3.73368"/>
<path d="M59.3507 20.9492C62.0164 16.7719 66.7049 14 72.0435 14C74.1089 14 76.077 14.4149 77.8683 15.1655C80.2944 16.1822 82.8195 17.0964 85.334 17.8686C91.4685 19.7526 95.9264 25.4425 95.9264 32.1692C95.9264 35.4214 94.8843 38.4313 93.1145 40.8859L91.8321 42.1141M72.159 27.6476C71.6925 26.4848 71.0453 25.4139 70.2521 24.4697C68.0991 21.9069 64.8705 20.2779 61.2614 20.2779C57.8532 20.2779 54.7843 21.7306 52.6401 24.0505C50.7061 26.143 49.5244 28.9409 49.5244 32.0149C49.5244 35.3715 50.9334 38.3989 53.1922 40.5381L54.574 41.5682" stroke="white" stroke-width="3.73368"/>
<path d="M92.1489 52.9982C92.1489 63.2834 83.767 71.6371 73.4078 71.6371C63.0486 71.6371 54.6667 63.2834 54.6667 52.9982V40.0536L58.4754 36.2507C58.6111 36.1152 58.9469 36.0261 59.272 36.2711C63.4537 39.4225 68.6487 41.2907 74.2725 41.2907C79.469 41.2907 84.3004 39.6955 88.3043 36.9658C88.6254 36.7469 88.9423 36.8362 89.0737 36.968L92.1489 40.0513V52.9982Z" stroke="white" stroke-width="3.73368"/>
<path d="M53.4822 46.7546H48.9785C46.5665 46.7546 44.6113 48.7099 44.6113 51.1219C44.6113 53.5338 46.5665 55.4891 48.9785 55.4891H54.1646" stroke="white" stroke-width="3.73368"/>
<path d="M92.2416 46.7542H96.7453C99.1573 46.7542 101.113 48.7094 101.113 51.1214C101.113 53.5334 99.1573 55.4886 96.7453 55.4886H91.5592" stroke="white" stroke-width="3.73368"/>
<path d="M64.5368 69.4092V80.0543L64.2638 80.0925L31.8085 88.6142C27.1292 89.8429 23.8668 94.0724 23.8668 98.9104V124H121.584V98.9104C121.584 94.0724 118.322 89.8429 113.642 88.6142L81.1869 80.0925L80.641 80.0543V69.4092" stroke="white" stroke-width="3.73368"/>
<path fill-rule="evenodd" clip-rule="evenodd" d="M51.2692 22.7833C53.1983 20.6961 55.7774 19.2119 58.6885 18.6543C61.7775 14.6883 66.612 12.1331 72.0435 12.1331C74.361 12.1331 76.574 12.5989 78.5899 13.4437C80.9591 14.4365 83.4263 15.3298 85.8821 16.084C92.7739 18.2005 97.7933 24.5951 97.7933 32.1691C97.7933 35.8267 96.6199 39.2162 94.6288 41.9776L94.529 42.116L94.0157 42.6076V44.8872H96.7453C100.188 44.8872 102.979 47.6783 102.979 51.1213C102.979 54.5643 100.188 57.3554 96.7453 57.3554H93.5495C92.2057 63.5345 88.063 68.6764 82.5079 71.4013V78.5092L114.116 86.8086C119.616 88.2527 123.451 93.224 123.451 98.9104V125.867H22V98.9104C22 93.224 25.8345 88.2527 31.3344 86.8086L62.67 78.5808V70.5036C57.9449 67.6278 54.4745 62.911 53.2662 57.3559H48.9785C45.5355 57.3559 42.7444 54.5648 42.7444 51.1218C42.7444 47.6788 45.5355 44.8877 48.9785 44.8877H52.7999V42.574L51.9884 41.9691L51.9086 41.8935C49.293 39.4164 47.6576 35.9051 47.6576 32.0148C47.6576 28.4529 49.029 25.2071 51.2692 22.7833ZM66.4037 72.289V81.6786L66.3593 81.6848L72.5889 87.8088L78.7742 81.7283V72.8016C77.0632 73.2595 75.2642 73.5037 73.4078 73.5037C70.9487 73.5037 68.5902 73.0751 66.4037 72.289ZM83.2498 82.5642L72.5889 93.0445L61.9855 82.6208L32.2826 90.4199C28.4239 91.4331 25.7337 94.9209 25.7337 98.9104V122.133H119.717V98.9104C119.717 94.9209 117.027 91.4331 113.168 90.4199L83.2498 82.5642ZM94.0157 52.9979V48.6209H96.7453C98.1262 48.6209 99.2457 49.7404 99.2457 51.1213C99.2457 52.5022 98.1262 53.6217 96.7453 53.6217H94.0064C94.0126 53.4145 94.0157 53.2066 94.0157 52.9979ZM52.7999 48.6214H48.9785C47.5976 48.6214 46.4781 49.7408 46.4781 51.1218C46.4781 52.5027 47.5976 53.6222 48.9785 53.6222H52.8092C52.803 53.4149 52.7999 53.2068 52.7999 52.9979V48.6214ZM94.0596 32.1691C94.0596 34.2515 93.5723 36.218 92.7045 37.9646L90.3955 35.6494C89.5597 34.8114 88.2306 34.7564 87.2527 35.4231C83.5481 37.9487 79.0811 39.4237 74.2725 39.4237C69.0691 39.4237 64.2657 37.6966 60.3955 34.78C59.4152 34.0413 58.025 34.0621 57.1564 34.9294L53.7098 38.3708C52.2616 36.6525 51.3913 34.4364 51.3913 32.0148C51.3913 29.4287 52.3834 27.0786 54.0111 25.3175C55.5433 23.6598 57.6317 22.5318 59.9756 22.2274C60.3957 22.1729 60.8248 22.1447 61.2614 22.1447C64.2959 22.1447 67.0093 23.5118 68.8227 25.6704C69.4905 26.4653 70.0346 27.3659 70.4263 28.3425L73.8916 26.9525C73.3504 25.6034 72.6001 24.3622 71.6815 23.2688C69.7283 20.9438 67.0067 19.2797 63.9073 18.6683C66.1467 16.913 68.9718 15.8667 72.0435 15.8667C73.857 15.8667 75.5801 16.2307 77.1468 16.8872C79.6296 17.9276 82.2126 18.8628 84.7859 19.6531C90.1633 21.3046 94.0596 26.2898 94.0596 32.1691ZM56.5335 52.9979C56.5335 62.2434 64.0709 69.77 73.4078 69.77C82.7447 69.77 90.2821 62.2434 90.2821 52.9979V40.8229L88.5196 39.0557C84.3866 41.6542 79.4997 43.1573 74.2725 43.1573C68.6011 43.1573 63.3327 41.3882 58.9922 38.3725L56.5335 40.8275V52.9979Z" fill="url(#paint0_linear)"/>
<path d="M72.6148 41.048C72.0868 41.048 71.6428 41.144 71.2828 41.336C70.9228 41.528 70.6468 41.756 70.4548 42.02C70.2868 42.284 70.1548 42.68 70.0588 43.208C69.9628 43.736 69.9028 44.18 69.8788 44.54C69.8788 44.9 69.8788 45.428 69.8788 46.124H64.9468C64.9468 42.836 65.6068 40.424 66.9268 38.888C68.2468 37.328 70.0828 36.548 72.4348 36.548C74.2108 36.548 75.6508 36.848 76.7548 37.448C77.8828 38.024 78.7108 38.912 79.2388 40.112C79.7908 41.312 80.0668 42.872 80.0668 44.792C80.0668 44.912 79.7788 45.356 79.2028 46.124C78.6268 46.868 77.9908 47.696 77.2948 48.608C76.6228 49.52 75.9988 50.576 75.4228 51.776C74.8468 52.976 74.5588 54.032 74.5588 54.944H70.4548C70.4548 54.104 70.5748 53.24 70.8148 52.352C71.0548 51.464 71.3428 50.66 71.6788 49.94C72.0148 49.22 72.3868 48.524 72.7948 47.852C73.2028 47.156 73.5748 46.58 73.9108 46.124C74.2708 45.644 74.5588 45.248 74.7748 44.936C75.0148 44.6 75.1348 44.408 75.1348 44.36C75.1348 44 75.1348 43.736 75.1348 43.568C75.1348 43.376 75.1108 43.148 75.0628 42.884C75.0388 42.596 74.9908 42.38 74.9188 42.236C74.8708 42.092 74.7868 41.936 74.6668 41.768C74.5468 41.576 74.3908 41.444 74.1988 41.372C74.0308 41.276 73.8148 41.204 73.5508 41.156C73.2868 41.084 72.9748 41.048 72.6148 41.048ZM74.9548 62H70.0588V58.04H74.9548V62Z" fill="black"/>
</g>
<circle cx="101.5" cy="90.5" r="11.5" stroke="#E4D8FF" stroke-width="3" stroke-linecap="round"/>
<circle cx="33.5" cy="19.5" r="11.5" stroke="#E4D8FF" stroke-width="3" stroke-linecap="round"/>
<defs>
<linearGradient id="paint0_linear" x1="-8.77722" y1="47.4925" x2="169.475" y2="74.9099" gradientUnits="userSpaceOnUse">
<stop stop-color="#FFA800"/>
<stop offset="0.505208" stop-color="#FF57C6"/>
<stop offset="1" stop-color="#10E6D9"/>
</linearGradient>
<clipPath id="clip0">
<rect x="22" y="2" width="100" height="100" rx="50" fill="white"/>
</clipPath>
</defs>
</svg>
